<svg width="136" height="36" viewBox="0 0 136 36" fill="none" xmlns="http://www.w3.org/2000/svg">
<g clip-path="url(#clip0_910_125)">
<rect width="136" height="36" fill="white"/>
<ellipse cx="17.8999" cy="35.2" rx="4" ry="0.7" fill="url(#paint0_radial_910_125)"/>
<circle cx="24.8165" cy="19.7826" r="0.652174" fill="#A5A5A5"/>
<path d="M18.947 35V29.1098C18.947 28.8446 19.0524 28.5903 19.2399 28.4027L20.2514 27.3913M22.8601 24.7826V22.3781C22.8601 22.1345 22.949 21.8992 23.1102 21.7165L24.8166 19.7826M22.8601 24.7826H23.5122M22.8601 24.7826L20.2514 27.3913M23.5122 24.7826L27.3498 20.945C27.5373 20.7575 27.6427 20.5031 27.6427 20.2379V18.4782M23.5122 24.7826H26.5557M35.034 22.3913H33.9012C33.651 22.3913 33.4099 22.4851 33.2255 22.6541L31.1903 24.5197C31.0059 24.6888 30.7648 24.7826 30.5146 24.7826H29.1644M26.5557 24.7826L30.1947 20.9414C30.3707 20.7557 30.4688 20.5095 30.4688 20.2537V20M26.5557 24.7826H29.1644M30.4688 17.826V20M30.4688 20H32.2079M32.2079 20L33.6209 18.75L35.034 17.5M32.2079 20L35.6208 20M29.1644 24.7826L30.3933 26.0114C30.5808 26.199 30.8351 26.3043 31.1004 26.3043H32.4253M20.2514 27.3913H23.6209M26.9905 27.3913H23.6209M23.6209 27.3913L25.18 28.8586C25.3655 29.0332 25.6106 29.1304 25.8653 29.1304H27.8601" stroke="#A5A5A5" stroke-width="0.5"/>
<circle cx="30.4688" cy="17.6087" r="0.652174" fill="#A5A5A5"/>
<circle cx="24.8165" cy="19.7826" r="0.652174" fill="#A5A5A5"/>
<circle cx="32.6427" cy="26.3044" r="0.652174" fill="#A5A5A5"/>
<circle cx="35.2513" cy="22.3913" r="0.652174" fill="#A5A5A5"/>
<path d="M16.7729 35V29.0835C16.7729 28.834 16.6796 28.5935 16.5114 28.4093L15.9033 27.7433M12.2077 22.1739V23.3078C12.2077 23.5573 12.3009 23.7978 12.4692 23.9821L13.0772 24.6481M12.2077 22.1739L12.0696 22.0253C11.8804 21.8215 11.6149 21.7057 11.3368 21.7057H9.35188C9.09207 21.7057 8.84246 21.6046 8.65591 21.4238L7.85983 20.6522M12.2077 22.1739V20.1341M13.0772 24.6481C13.0025 24.6943 12.0965 24.7091 10.9033 24.7074M13.0772 24.6481L15.3952 27.1868M2.42505 23.0435H3.77334C4.02464 23.0435 4.26673 23.1381 4.45144 23.3085L5.62422 24.3906C5.80401 24.5564 6.03823 24.6507 6.28282 24.6552C7.0511 24.6691 8.00202 24.6838 8.94679 24.6941C9.62548 24.7014 10.301 24.7065 10.9033 24.7074M10.9033 24.7074L9.68131 26.1644C9.49131 26.3909 9.2108 26.5218 8.91512 26.5218H4.81635M15.9033 27.7433H13.4033M15.9033 27.7433L15.3952 27.1868M10.9033 27.7433H13.4033M13.4033 27.7433L12.071 29.2321C11.8813 29.4441 11.6103 29.5652 11.3258 29.5652H10.0337M9.81242 24.6481L8.12085 23M15.3952 27.1868V24.9249C15.3952 24.6954 15.3163 24.4729 15.1717 24.2947L14.1208 23" stroke="#A5A5A5" stroke-width="0.5"/>
<circle cx="10.9034" cy="27.6087" r="0.652174" fill="#A5A5A5"/>
<circle cx="7.85994" cy="20.6522" r="0.652174" fill="#A5A5A5"/>
<path d="M10.9035 17.8261V15.7609V14.1384C10.9035 13.8564 10.7845 13.5876 10.5758 13.3981L7.31821 10.4399C7.10949 10.2503 6.99048 9.98148 6.99048 9.69955V6.95654" stroke="#C23F40" stroke-width="0.434783"/>
<circle cx="6.99031" cy="6.73915" r="0.652174" fill="#C23F40"/>
<circle cx="10.9034" cy="17.6087" r="0.652174" fill="#C23F40"/>
<path d="M6.42519 22.6253L4.62084 20.8209M0.338235 19.7992H3.18489C3.45011 19.7992 3.70446 19.9046 3.892 20.0921L4.62084 20.8209M4.62084 20.8209V18.4142C4.62084 18.149 4.51549 17.8946 4.32795 17.7071L3.78477 17.1639M2.12084 15.5L3.78477 17.1639M3.78477 17.1639H0" stroke="#E6AC00" stroke-width="0.652174"/>
<circle cx="0.773023" cy="19.7521" r="0.652174" fill="#E6AC00"/>
<path d="M10.2513 20L6.99048 16.5218M6.99048 16.5218H5.68458C5.40817 16.5218 5.14409 16.4074 4.95504 16.2057L1.99048 13.0435M6.99048 16.5218V14.7826M6.99048 12.1739V14.7826M6.99048 14.7826L4.99193 12.455C4.83624 12.2736 4.75064 12.0425 4.75064 11.8035V10" stroke="#2EA02C" stroke-width="0.521739"/>
<circle cx="2.20784" cy="13.2609" r="0.652174" fill="#2EA02C"/>
<circle cx="4.77302" cy="9.65217" r="0.652174" fill="#2EA02C"/>
<path d="M17.8601 35V25M17.8601 0.652222V4.34787M17.8601 4.34787L20.034 2.17396M17.8601 4.34787V5.86961M17.8601 5.86961L14.7513 3.34367C14.5176 3.15378 14.3819 2.86868 14.3819 2.56756V1.73918M17.8601 5.86961V14.1305M17.8601 14.1305L20.2036 11.5917C20.3741 11.407 20.4688 11.1648 20.4688 10.9134V8.91309M17.8601 14.1305V16.7392M20.4688 4.34787V8.91309M20.4688 8.91309L23.2949 6.20988M25.4688 4.13048L23.2949 6.20988M23.2949 6.20988V2.17396M17.8601 25L15.0856 22.0273C14.9128 21.8422 14.8167 21.5983 14.8167 21.345V19.7621C14.8167 19.4969 14.7113 19.2425 14.5238 19.055L14.24 18.7712C14.0524 18.5837 13.9471 18.3293 13.9471 18.0641V15.8696M17.8601 25V21.3515M17.8601 21.3515L22.3522 17.0194C22.5386 16.8396 22.7874 16.7392 23.0464 16.7392H25.9242C26.1894 16.7392 26.4437 16.6338 26.6313 16.4463L28.0775 15M17.8601 21.3515V16.7392M30.9036 12.174L29.8167 13.2609M29.8167 13.2609V9.97948C29.8167 9.71426 29.922 9.45991 30.1095 9.27237L30.6107 8.7712C30.7982 8.58366 30.9036 8.32931 30.9036 8.06409V7.39135M29.8167 13.2609L28.0775 15M17.8601 16.7392L11.7732 10.9812M9.81665 9.13048L11.7732 10.9812M15.2514 14.1305V9.56526M15.2514 7.82613V9.56526M15.2514 9.56526L14.3069 8.77815C14.0789 8.58816 13.9471 8.30671 13.9471 8.00993V5.21744M11.7732 10.9812V7.01239M11.7732 3.04353V7.01239M11.7732 7.01239L9.81665 5.21744M28.0775 15H30.9036M34.5993 15H30.9036M30.9036 15L32.7022 13.5612C32.9394 13.3714 33.0775 13.0841 33.0775 12.7803V10.6522" stroke="#C23F40" stroke-width="0.521739"/>
<circle cx="33.0772" cy="10.6522" r="0.652174" fill="#C23F40"/>
<circle cx="30.9034" cy="7.1739" r="0.652174" fill="#C23F40"/>
<circle cx="20.4688" cy="4.13045" r="0.652174" fill="#C23F40"/>
<circle cx="17.8599" cy="0.652174" r="0.652174" fill="#C23F40"/>
<circle cx="10.034" cy="9.34785" r="0.652174" fill="#C23F40"/>
<circle cx="13.9469" cy="15.8696" r="0.652174" fill="#C23F40"/>
<circle cx="9.5992" cy="4.99995" r="0.652174" fill="#C23F40"/>
<circle cx="11.773" cy="3.26088" r="0.652174" fill="#C23F40"/>
<circle cx="34.8165" cy="15" r="0.652174" fill="#C23F40"/>
<path d="M19.8167 25.6521V22.3943C19.8167 22.1152 19.9333 21.8488 20.1384 21.6595L22.6427 19.3478" stroke="#E6AC00" stroke-width="0.652174"/>
<circle cx="22.6427" cy="19.3479" r="0.652174" fill="#E6AC00"/>
<path d="M18.947 17.3913L22.1208 14.5M23.7296 12.8261V11.3044M23.7296 12.8261H25.5233C25.7683 12.8261 26.0047 12.7362 26.1877 12.5735L27.8601 11.087M23.7296 12.8261L22.1208 14.5M23.7296 8.26089V11.3044M23.7296 11.3044L26.6728 8.55739C26.8755 8.36826 26.9905 8.10351 26.9905 7.82633V5.21741M22.1208 14.5H25.1208" stroke="#2EA02C" stroke-width="0.521739"/>
<circle cx="26.9903" cy="5.00001" r="0.652174" fill="#2EA02C"/>
<circle cx="24.773" cy="14.4522" r="0.652174" fill="#2EA02C"/>
<path d="M48.8806 28.3582C47.4279 28.3582 46.1045 28.1692 44.9104 27.791C43.7164 27.393 42.7114 26.8756 41.8955 26.2388L43.3284 23.8507C44.0448 24.4478 44.8507 24.9353 45.7463 25.3134C46.6418 25.6915 47.6866 25.8806 48.8806 25.8806C50.3134 25.8806 51.4478 25.5821 52.2836 24.9851C53.1194 24.3881 53.5373 23.5821 53.5373 22.5672C53.5373 21.99 53.4179 21.4826 53.1791 21.0448C52.9403 20.5871 52.4726 20.1493 51.7761 19.7313C51.0995 19.2935 50.0945 18.8259 48.7612 18.3284C47.3284 17.7711 46.1841 17.2139 45.3284 16.6567C44.4726 16.0796 43.8557 15.4328 43.4776 14.7164C43.1194 13.9801 42.9403 13.1144 42.9403 12.1194C42.9403 11.1244 43.209 10.2289 43.7463 9.43283C44.3035 8.61691 45.1095 7.97015 46.1642 7.49254C47.2388 6.99502 48.5323 6.74627 50.0448 6.74627C51.2786 6.74627 52.3831 6.87562 53.3582 7.13433C54.3532 7.37313 55.3184 7.72139 56.2537 8.1791L55.209 10.597C54.5323 10.199 53.7363 9.87065 52.8209 9.61194C51.9254 9.33333 50.9801 9.19403 49.9851 9.19403C48.6716 9.19403 47.6368 9.45273 46.8806 9.97015C46.1244 10.4876 45.7463 11.1542 45.7463 11.9701C45.7463 12.4876 45.8557 12.9453 46.0746 13.3433C46.2935 13.7413 46.7214 14.1294 47.3582 14.5075C48.0149 14.8856 48.9901 15.3134 50.2836 15.791C51.8358 16.3682 53.0597 16.9751 53.9552 17.6119C54.8706 18.2488 55.5174 18.9453 55.8955 19.7015C56.2736 20.4378 56.4627 21.2836 56.4627 22.2388C56.4627 23.5323 56.1343 24.6368 55.4776 25.5522C54.8408 26.4677 53.9453 27.1642 52.791 27.6418C51.6567 28.1194 50.3532 28.3582 48.8806 28.3582ZM60.6297 34.5672V16.4478C60.6297 15.7711 60.4605 15.2935 60.1222 15.0149C59.8038 14.7164 59.3859 14.5672 58.8685 14.5672L59.4356 12.4776C61.2665 12.4776 62.4108 13.204 62.8685 14.6567C63.0675 14.3582 63.3859 14.0099 63.8237 13.6119C64.2814 13.2139 64.8386 12.8657 65.4953 12.5672C66.172 12.2687 66.9381 12.1194 67.7938 12.1194C68.9879 12.1194 70.1023 12.4378 71.1371 13.0746C72.1919 13.6915 73.0376 14.597 73.6744 15.791C74.3113 16.9652 74.6297 18.398 74.6297 20.0896C74.6297 21.7413 74.3113 23.194 73.6744 24.4478C73.0376 25.6816 72.2018 26.6468 71.167 27.3433C70.1521 28.0199 69.0476 28.3582 67.8535 28.3582C66.9381 28.3582 66.0824 28.1791 65.2864 27.8209C64.4904 27.4428 63.8336 27.0149 63.3162 26.5373V34.5672H60.6297ZM67.3162 25.9701C68.6695 25.9701 69.764 25.4428 70.5998 24.3881C71.4555 23.3134 71.8834 21.9104 71.8834 20.1791C71.8834 18.9851 71.6645 17.9602 71.2267 17.1045C70.8088 16.2488 70.2416 15.592 69.5252 15.1343C68.8287 14.6766 68.0526 14.4478 67.1968 14.4478C66.3411 14.4478 65.565 14.6667 64.8685 15.1045C64.1919 15.5224 63.6744 15.9801 63.3162 16.4776V24.1194C63.8336 24.6567 64.4307 25.1045 65.1073 25.4627C65.7839 25.801 66.5202 25.9701 67.3162 25.9701ZM84.3097 28.3582C83.0162 28.3582 81.842 28.0299 80.7873 27.3731C79.7326 26.7164 78.8868 25.791 78.25 24.597C77.6331 23.3831 77.3246 21.9602 77.3246 20.3284C77.3246 18.7761 77.6331 17.3831 78.25 16.1493C78.8868 14.9154 79.7525 13.9403 80.847 13.2239C81.9614 12.4876 83.2351 12.1194 84.6679 12.1194C85.5634 12.1194 86.3694 12.2786 87.0858 12.597C87.8221 12.8955 88.459 13.2736 88.9963 13.7313V12.4776H91.444V24.2388C91.444 24.995 91.6231 25.4925 91.9813 25.7313C92.3595 25.9502 92.7674 26.0597 93.2052 26.0597L92.6381 28.1493C90.7276 28.1493 89.5734 27.3731 89.1754 25.8209C88.7177 26.4577 88.0908 27.0448 87.2948 27.5821C86.5187 28.0995 85.5236 28.3582 84.3097 28.3582ZM84.9067 25.9701C85.6629 25.9701 86.3794 25.791 87.056 25.4328C87.7326 25.0547 88.2998 24.5871 88.7575 24.0299V15.7015C88.2202 15.3234 87.6231 15.0249 86.9664 14.806C86.3296 14.5672 85.653 14.4478 84.9366 14.4478C83.9813 14.4478 83.1356 14.6965 82.3993 15.194C81.6828 15.6716 81.1157 16.3483 80.6978 17.2239C80.2799 18.0796 80.0709 19.0846 80.0709 20.2388C80.0709 21.3532 80.2799 22.3483 80.6978 23.2239C81.1157 24.0796 81.6928 24.7562 82.4291 25.2537C83.1654 25.7313 83.9913 25.9701 84.9067 25.9701ZM96.7929 28V12.4776H99.3899V15.8507C99.6486 15.194 99.9969 14.5871 100.435 14.0299C100.873 13.4527 101.42 12.995 102.076 12.6567C102.733 12.2985 103.499 12.1194 104.375 12.1194C104.674 12.1194 104.972 12.1393 105.271 12.1791C105.569 12.199 105.818 12.2388 106.017 12.2985L105.211 15.0746C104.833 14.9154 104.385 14.8358 103.868 14.8358C103.131 14.8358 102.425 15.0448 101.748 15.4627C101.091 15.8806 100.544 16.5274 100.106 17.403C99.6884 18.2786 99.4795 19.393 99.4795 20.7463V28H96.7929Z" fill="#444E4F"/>
<path d="M117.044 28.3582C115.233 28.3582 113.631 27.9303 112.238 27.0746C110.845 26.199 109.76 24.9652 108.984 23.3731C108.208 21.7612 107.82 19.8507 107.82 17.6418C107.82 15.5124 108.208 13.6318 108.984 12C109.78 10.3483 110.895 9.06468 112.328 8.14925C113.78 7.21393 115.472 6.74627 117.402 6.74627C118.397 6.74627 119.303 6.84577 120.119 7.04478C120.935 7.22388 121.701 7.48259 122.417 7.82089L121.552 10.209C120.935 9.91045 120.298 9.67164 119.641 9.49254C119.004 9.31343 118.248 9.22388 117.372 9.22388C116.099 9.22388 114.955 9.55224 113.94 10.209C112.945 10.8657 112.159 11.8109 111.581 13.0448C111.004 14.2786 110.716 15.7711 110.716 17.5224C110.716 19.194 110.994 20.6567 111.552 21.9104C112.129 23.1642 112.915 24.1393 113.91 24.8358C114.925 25.5323 116.079 25.8806 117.372 25.8806C118.348 25.8806 119.193 25.7612 119.91 25.5224C120.626 25.2836 121.323 24.9751 121.999 24.597L122.865 26.9552C122.129 27.3532 121.283 27.6915 120.328 27.9701C119.392 28.2289 118.298 28.3582 117.044 28.3582Z" fill="url(#paint1_linear_910_125)"/>
<path d="M129.216 19.7954C128.176 19.7954 127.272 19.6594 126.504 19.3874C125.736 19.0994 125.08 18.7554 124.536 18.3554L125.52 16.5554C125.968 16.8914 126.488 17.1874 127.08 17.4434C127.672 17.6994 128.392 17.8274 129.24 17.8274C130.296 17.8274 131.128 17.5474 131.736 16.9874C132.36 16.4274 132.672 15.7314 132.672 14.8994C132.672 14.3074 132.512 13.7714 132.192 13.2914C131.872 12.7954 131.376 12.3954 130.704 12.0914C130.048 11.7874 129.192 11.6354 128.136 11.6354H126.792V9.88345H128.04C128.984 9.88345 129.76 9.73945 130.368 9.45145C130.992 9.16345 131.456 8.78745 131.76 8.32345C132.064 7.85945 132.216 7.37145 132.216 6.85945C132.216 6.10745 131.928 5.49945 131.352 5.03545C130.792 4.57145 130.096 4.33945 129.264 4.33945C128.512 4.33945 127.84 4.46745 127.248 4.72344C126.672 4.96345 126.2 5.23545 125.832 5.53945L124.944 3.83544C125.424 3.51545 126.04 3.20345 126.792 2.89945C127.544 2.57945 128.424 2.41945 129.432 2.41945C130.488 2.41945 131.384 2.61145 132.12 2.99545C132.856 3.37945 133.416 3.89145 133.8 4.53145C134.2 5.15545 134.4 5.83545 134.4 6.57145C134.4 7.51545 134.16 8.30745 133.68 8.94745C133.216 9.58745 132.552 10.1154 131.688 10.5314C132.696 10.9154 133.48 11.4834 134.04 12.2354C134.616 12.9714 134.904 13.8354 134.904 14.8274C134.904 15.6594 134.696 16.4594 134.28 17.2274C133.88 17.9794 133.256 18.5954 132.408 19.0754C131.576 19.5554 130.512 19.7954 129.216 19.7954Z" fill="url(#paint2_linear_910_125)"/>
</g>
<defs>
<radialGradient id="paint0_radial_910_125" cx="0" cy="0" r="1" gradientUnits="userSpaceOnUse" gradientTransform="translate(17.8999 35.2) rotate(0.638861) scale(5.33353 0.536029)">
<stop stop-color="#ABABAB"/>
<stop offset="1" stop-color="white"/>
</radialGradient>
<linearGradient id="paint1_linear_910_125" x1="85.7761" y1="6.97015" x2="85.7761" y2="27.8657" gradientUnits="userSpaceOnUse">
<stop stop-color="#C23F40"/>
<stop offset="0.526855" stop-color="#C23F40"/>
<stop offset="0.903846" stop-color="#2EA02C"/>
</linearGradient>
<linearGradient id="paint2_linear_910_125" x1="132.5" y1="8.50745" x2="131.955" y2="20.4179" gradientUnits="userSpaceOnUse">
<stop stop-color="#E6AC00"/>
<stop offset="1" stop-color="#2EA02C"/>
</linearGradient>
<clipPath id="clip0_910_125">
<rect width="136" height="36" fill="white"/>
</clipPath>
</defs>
</svg>
