<svg width="711" height="162" viewBox="0 0 711 162" fill="none" xmlns="http://www.w3.org/2000/svg">
<path d="M161.587 49L169.385 28.2881H172.037L179.806 49H177.051L174.748 42.9074H166.105L163.831 49H161.587ZM166.732 41.2458H174.122C171.77 34.7354 170.541 31.1109 170.434 30.3724C170.172 31.5871 168.938 35.2115 166.732 41.2458ZM180.389 37.4707V35.7217H182.955V31.9612H185.039V35.7217H189.251V37.4707H185.039V44.8168C185.039 46.5464 185.578 47.4113 186.657 47.4113C187.492 47.4113 188.367 47.0857 189.28 46.4347L189.761 48.1983C188.352 48.9563 186.88 49.3352 185.345 49.3352C183.712 49.3352 182.896 48.0574 182.896 45.5019V37.4707H180.389ZM191.175 37.4707V35.7217H193.74V31.9612H195.825V35.7217H200.037V37.4707H195.825V44.8168C195.825 46.5464 196.364 47.4113 197.443 47.4113C198.278 47.4113 199.153 47.0857 200.066 46.4347L200.547 48.1983C199.138 48.9563 197.666 49.3352 196.131 49.3352C194.498 49.3352 193.682 48.0574 193.682 45.5019V37.4707H191.175ZM203.841 49V35.5613H205.926V38.2578C206.169 37.8788 206.455 37.5145 206.786 37.1646C207.126 36.8148 207.699 36.4407 208.505 36.0423C209.312 35.6439 210.196 35.435 211.158 35.4156V37.4124C210.643 37.4319 210.123 37.529 209.599 37.7039C209.084 37.8691 208.539 38.1363 207.966 38.5056C207.403 38.8748 206.946 39.4384 206.596 40.1964C206.246 40.9543 206.071 41.8385 206.071 42.8491V49H203.841ZM213.84 31.3927V28.7254H216.522V31.3927H213.84ZM214.044 49V35.7217H216.274V49H214.044ZM221.186 49V27.4427H223.416V37.1501C224.874 35.9937 226.467 35.4156 228.197 35.4156C229.625 35.4156 230.796 36.1055 231.71 37.4853C232.633 38.8554 233.094 40.4636 233.094 42.3098C233.094 44.3212 232.541 45.9974 231.433 47.3384C230.335 48.6696 229.028 49.3352 227.512 49.3352C226.103 49.3352 224.772 48.7668 223.518 47.6299V49H221.186ZM223.518 45.0354C223.518 45.1909 223.523 45.3124 223.533 45.3998C223.543 45.4873 223.562 45.5747 223.591 45.6622C223.62 45.7399 223.649 45.7982 223.679 45.8371C223.708 45.876 223.756 45.944 223.824 46.0412C223.892 46.1383 223.956 46.2306 224.014 46.3181C224.675 47.1149 225.491 47.5133 226.463 47.5133C227.522 47.5133 228.498 47.0955 229.392 46.2598C230.286 45.4241 230.733 44.1172 230.733 42.339C230.733 41.4061 230.602 40.5899 230.34 39.8903C230.087 39.1809 229.747 38.6465 229.319 38.287C228.892 37.9274 228.459 37.6651 228.022 37.4999C227.585 37.325 227.148 37.2375 226.71 37.2375C225.933 37.2375 225.204 37.4659 224.524 37.9226C223.854 38.3793 223.518 38.8894 223.518 39.453V45.0354ZM236.578 45.3561V35.7217H238.91V45.7205C238.93 46.4201 239.09 46.9206 239.391 47.2218C239.702 47.5133 240.334 47.659 241.286 47.659C242.316 47.659 243.147 47.387 243.778 46.8428C244.41 46.2889 244.765 45.6525 244.842 44.9334C244.862 44.7391 244.872 44.4524 244.872 44.0735V35.7217H247.204V49H244.93V47.5716C243.579 48.7474 241.84 49.3352 239.712 49.3352C239.119 49.3352 238.609 49.2381 238.181 49.0437C237.763 48.8591 237.448 48.6453 237.234 48.4024C237.03 48.1595 236.874 47.8242 236.767 47.3967C236.661 46.9691 236.602 46.6339 236.593 46.391C236.583 46.1383 236.578 45.7934 236.578 45.3561ZM250.148 37.4707V35.7217H252.713V31.9612H254.797V35.7217H259.01V37.4707H254.797V44.8168C254.797 46.5464 255.337 47.4113 256.415 47.4113C257.251 47.4113 258.126 47.0857 259.039 46.4347L259.52 48.1983C258.111 48.9563 256.639 49.3352 255.104 49.3352C253.471 49.3352 252.655 48.0574 252.655 45.5019V37.4707H250.148ZM262.61 31.3927V28.7254H265.292V31.3927H262.61ZM262.814 49V35.7217H265.044V49H262.814ZM268.426 42.3973C268.426 40.3858 269.067 38.6902 270.35 37.3104C271.642 35.9306 273.182 35.2407 274.97 35.2407C276.845 35.2407 278.41 35.9646 279.663 37.4124C280.917 38.8506 281.544 40.5219 281.544 42.4264C281.544 44.399 280.883 46.046 279.561 47.3675C278.25 48.6793 276.719 49.3352 274.97 49.3352C273.221 49.3352 271.691 48.6745 270.379 47.353C269.077 46.0217 268.426 44.3698 268.426 42.3973ZM270.758 42.1058C270.758 43.8548 271.18 45.1763 272.026 46.0703C272.871 46.9643 273.853 47.4113 274.97 47.4113C276.087 47.4113 277.069 46.9594 277.914 46.0557C278.76 45.1521 279.182 43.8354 279.182 42.1058C279.182 40.4344 278.76 39.1809 277.914 38.3453C277.069 37.5096 276.087 37.0918 274.97 37.0918C273.872 37.0918 272.895 37.5096 272.04 38.3453C271.185 39.1809 270.758 40.4344 270.758 42.1058ZM284.852 49V35.5613H287.024V37.6602C288.18 36.1638 289.633 35.4156 291.382 35.4156C292.121 35.4156 292.752 35.5273 293.277 35.7508C293.811 35.9646 294.215 36.2318 294.487 36.5525C294.768 36.8731 294.982 37.2764 295.128 37.7622C295.283 38.2481 295.381 38.6805 295.42 39.0595C295.458 39.4384 295.478 39.8854 295.478 40.4004V49H293.146V40.6191C293.146 40.279 293.141 40.0117 293.131 39.8174C293.121 39.6133 293.063 39.3267 292.956 38.9574C292.849 38.5882 292.699 38.2967 292.504 38.0829C292.32 37.8594 292.033 37.6651 291.644 37.4999C291.256 37.325 290.78 37.2375 290.216 37.2375C289.157 37.2375 288.384 37.6845 287.899 38.5785C287.422 39.4724 287.184 40.5559 287.184 41.8288V49H284.852ZM298.174 43.2427V41.479H306.118V43.2427H298.174ZM308.625 51.1135C308.625 49.8211 309.261 48.7959 310.534 48.038C310.039 47.319 309.791 46.5659 309.791 45.7788C309.791 44.8848 310.083 44.0492 310.666 43.2718V43.2427C310.005 42.3876 309.674 41.4013 309.674 40.2838C309.674 38.8748 310.146 37.7137 311.088 36.8003C312.041 35.8771 313.153 35.4156 314.426 35.4156C315.437 35.4156 316.408 35.746 317.341 36.4067L317.283 36.3484C318.76 35.7362 320.324 35.4253 321.976 35.4156L322.297 37.2958C321.704 37.2375 321.116 37.2084 320.533 37.2084C320.475 37.2084 319.732 37.2472 318.303 37.325L318.026 37.0918C318.804 38.1509 319.192 39.2149 319.192 40.2838C319.192 41.5762 318.736 42.7131 317.822 43.6945C316.909 44.6662 315.777 45.1521 314.426 45.1521C313.552 45.1521 312.643 44.8508 311.7 44.2484C311.477 44.6856 311.37 45.0549 311.38 45.3561C311.38 45.7545 311.496 46.1189 311.73 46.4493C311.973 46.7797 312.41 46.9448 313.041 46.9448H315.286C315.986 46.9448 316.578 46.9691 317.064 47.0177C317.55 47.0663 318.157 47.1781 318.886 47.353C319.615 47.5182 320.222 47.8242 320.708 48.2712C321.194 48.7182 321.534 49.2915 321.728 49.9911C321.826 50.3895 321.879 50.7539 321.889 51.0843C321.889 52.2406 321.238 53.2075 319.936 53.9848C318.643 54.7622 317.084 55.1509 315.257 55.1509C313.411 55.1509 311.841 54.7622 310.549 53.9848C309.266 53.2075 308.625 52.2503 308.625 51.1135ZM310.724 51.1135C310.724 51.6285 310.991 52.0706 311.526 52.4398C312.06 52.8091 312.653 53.0666 313.304 53.2123C313.965 53.3678 314.606 53.4455 315.228 53.4455C316.481 53.4455 317.555 53.2318 318.449 52.8042C319.343 52.3767 319.79 51.8228 319.79 51.1426C319.79 49.7725 318.308 49.0875 315.344 49.0875H313.464L312.604 49.1166C312.031 49.1749 311.574 49.4033 311.234 49.8017C310.894 50.2001 310.724 50.6373 310.724 51.1135ZM311.759 40.2838C311.759 41.2361 312.002 41.9989 312.488 42.5722C312.983 43.1358 313.639 43.4176 314.455 43.4176C315.135 43.4176 315.748 43.1746 316.292 42.6888C316.836 42.2029 317.108 41.3916 317.108 40.2547C317.108 39.3024 316.865 38.5445 316.379 37.9809C315.893 37.4076 315.242 37.1209 314.426 37.1209C313.746 37.1209 313.129 37.3638 312.575 37.8497C312.031 38.3355 311.759 39.1469 311.759 40.2838ZM325.139 45.3561V35.7217H327.471V45.7205C327.491 46.4201 327.651 46.9206 327.952 47.2218C328.263 47.5133 328.895 47.659 329.847 47.659C330.877 47.659 331.708 47.387 332.339 46.8428C332.971 46.2889 333.326 45.6525 333.403 44.9334C333.423 44.7391 333.433 44.4524 333.433 44.0735V35.7217H335.765V49H333.491V47.5716C332.14 48.7474 330.401 49.3352 328.273 49.3352C327.68 49.3352 327.17 49.2381 326.742 49.0437C326.325 48.8591 326.009 48.6453 325.795 48.4024C325.591 48.1595 325.435 47.8242 325.329 47.3967C325.222 46.9691 325.163 46.6339 325.154 46.391C325.144 46.1383 325.139 45.7934 325.139 45.3561ZM340.385 31.3927V28.7254H343.067V31.3927H340.385ZM340.589 49V35.7217H342.819V49H340.589ZM346.361 42.3973C346.361 40.4247 346.876 38.7631 347.906 37.4124C348.946 36.0618 350.199 35.3864 351.667 35.3864C353.182 35.3864 354.625 35.9354 355.996 37.0335V27.4427H358.269V49H355.908V47.455C354.616 48.7085 353.144 49.3352 351.492 49.3352C350.015 49.3352 348.79 48.6405 347.819 47.2509C346.847 45.8614 346.361 44.2435 346.361 42.3973ZM348.679 42.3681C348.679 44.1366 349.096 45.4338 349.932 46.2598C350.768 47.076 351.696 47.4841 352.716 47.4841C353.552 47.4841 354.29 47.2023 354.932 46.6388C355.583 46.0655 355.908 45.5213 355.908 45.0063V39.2927C355.908 38.9137 355.699 38.5299 355.281 38.1412C354.64 37.5485 353.902 37.2472 353.066 37.2375H353.008C352.531 37.2375 352.06 37.3298 351.594 37.5145C351.127 37.6894 350.666 37.9614 350.209 38.3307C349.752 38.6999 349.383 39.2344 349.101 39.934C348.82 40.6239 348.679 41.4353 348.679 42.3681ZM361.753 42.2515C361.753 40.279 362.35 38.6173 363.546 37.2667C364.751 35.916 366.16 35.2407 367.773 35.2407C368.365 35.2407 368.929 35.3378 369.463 35.5322C370.008 35.7168 370.552 36.0278 371.096 36.465C371.65 36.9023 372.106 37.5582 372.466 38.4327C372.825 39.3073 373.034 40.3518 373.093 41.5665V42.4264H363.837C363.896 43.9228 364.352 45.1423 365.207 46.0849C366.062 47.0177 367.078 47.4841 368.254 47.4841C369.769 47.4841 371.28 46.9351 372.787 45.8371L372.976 47.8048C371.46 48.8154 369.886 49.3255 368.254 49.3352C366.359 49.3352 364.799 48.6356 363.575 47.2364C362.36 45.8274 361.753 44.1658 361.753 42.2515ZM363.983 40.794H371.387C371.271 40.0166 371.057 39.3607 370.746 38.8263C370.435 38.2821 370.085 37.8983 369.697 37.6748C369.308 37.4416 368.958 37.2861 368.647 37.2084C368.346 37.1306 368.054 37.0918 367.773 37.0918C366.762 37.0918 365.926 37.4804 365.266 38.2578C364.605 39.0352 364.177 39.8806 363.983 40.794ZM375.046 42.3973C375.046 40.4247 375.561 38.7631 376.591 37.4124C377.631 36.0618 378.884 35.3864 380.351 35.3864C381.867 35.3864 383.31 35.9354 384.68 37.0335V27.4427H386.954V49H384.593V47.455C383.3 48.7085 381.828 49.3352 380.176 49.3352C378.699 49.3352 377.475 48.6405 376.503 47.2509C375.532 45.8614 375.046 44.2435 375.046 42.3973ZM377.363 42.3681C377.363 44.1366 377.781 45.4338 378.617 46.2598C379.453 47.076 380.38 47.4841 381.401 47.4841C382.236 47.4841 382.975 47.2023 383.616 46.6388C384.267 46.0655 384.593 45.5213 384.593 45.0063V39.2927C384.593 38.9137 384.384 38.5299 383.966 38.1412C383.325 37.5485 382.586 37.2472 381.751 37.2375H381.692C381.216 37.2375 380.745 37.3298 380.278 37.5145C379.812 37.6894 379.35 37.9614 378.894 38.3307C378.437 38.6999 378.068 39.2344 377.786 39.934C377.504 40.6239 377.363 41.4353 377.363 42.3681ZM402.2 49V28.2881H409.24C411.067 28.2881 412.597 28.6768 413.831 29.4542C414.745 30.0275 415.454 30.732 415.959 31.5676C416.474 32.4033 416.732 33.307 416.732 34.2787C416.732 35.8334 416.091 37.2424 414.808 38.5056C413.525 39.7688 411.708 40.4004 409.357 40.4004C409.26 40.4004 409.099 40.3956 408.876 40.3858C408.662 40.3761 408.492 40.3713 408.366 40.3713H404.882V49H402.2ZM404.795 38.6368H408.759C409.789 38.6368 410.693 38.5007 411.47 38.2287C412.248 37.9469 412.826 37.5728 413.205 37.1063C413.584 36.6399 413.861 36.1735 414.035 35.7071C414.22 35.231 414.312 34.7548 414.312 34.2787C414.312 33.8414 414.23 33.3993 414.065 32.9523C413.909 32.5053 413.647 32.0438 413.278 31.5676C412.918 31.0915 412.35 30.7028 411.572 30.4016C410.795 30.1004 409.857 29.9497 408.759 29.9497H404.795V38.6368ZM420.842 49V35.5613H422.927V38.2578C423.169 37.8788 423.456 37.5145 423.787 37.1646C424.127 36.8148 424.7 36.4407 425.506 36.0423C426.313 35.6439 427.197 35.435 428.159 35.4156V37.4124C427.644 37.4319 427.124 37.529 426.6 37.7039C426.085 37.8691 425.54 38.1363 424.967 38.5056C424.404 38.8748 423.947 39.4384 423.597 40.1964C423.247 40.9543 423.072 41.8385 423.072 42.8491V49H420.842ZM431.016 45.3561V35.7217H433.348V45.7205C433.367 46.4201 433.528 46.9206 433.829 47.2218C434.14 47.5133 434.772 47.659 435.724 47.659C436.754 47.659 437.585 47.387 438.216 46.8428C438.848 46.2889 439.203 45.6525 439.28 44.9334C439.3 44.7391 439.309 44.4524 439.309 44.0735V35.7217H441.642V49H439.368V47.5716C438.017 48.7474 436.278 49.3352 434.15 49.3352C433.557 49.3352 433.047 49.2381 432.619 49.0437C432.201 48.8591 431.886 48.6453 431.672 48.4024C431.468 48.1595 431.312 47.8242 431.205 47.3967C431.099 46.9691 431.04 46.6339 431.031 46.391C431.021 46.1383 431.016 45.7934 431.016 45.3561ZM446.437 49V35.5613H448.609V37.6602C449.765 36.1638 451.218 35.4156 452.967 35.4156C453.705 35.4156 454.337 35.5273 454.862 35.7508C455.396 35.9646 455.799 36.2318 456.071 36.5525C456.353 36.8731 456.567 37.2764 456.713 37.7622C456.868 38.2481 456.965 38.6805 457.004 39.0595C457.043 39.4384 457.062 39.8854 457.062 40.4004V49H454.73V40.6191C454.73 40.279 454.726 40.0117 454.716 39.8174C454.706 39.6133 454.648 39.3267 454.541 38.9574C454.434 38.5882 454.283 38.2967 454.089 38.0829C453.904 37.8594 453.618 37.6651 453.229 37.4999C452.84 37.325 452.364 37.2375 451.801 37.2375C450.742 37.2375 449.969 37.6845 449.483 38.5785C449.007 39.4724 448.769 40.5559 448.769 41.8288V49H446.437ZM461.683 31.3927V28.7254H464.365V31.3927H461.683ZM461.887 49V35.7217H464.117V49H461.887ZM469 49V35.5613H471.172V37.6602C472.328 36.1638 473.781 35.4156 475.53 35.4156C476.268 35.4156 476.9 35.5273 477.425 35.7508C477.959 35.9646 478.362 36.2318 478.634 36.5525C478.916 36.8731 479.13 37.2764 479.276 37.7622C479.431 38.2481 479.528 38.6805 479.567 39.0595C479.606 39.4384 479.625 39.8854 479.625 40.4004V49H477.293V40.6191C477.293 40.279 477.289 40.0117 477.279 39.8174C477.269 39.6133 477.211 39.3267 477.104 38.9574C476.997 38.5882 476.846 38.2967 476.652 38.0829C476.467 37.8594 476.181 37.6651 475.792 37.4999C475.403 37.325 474.927 37.2375 474.364 37.2375C473.305 37.2375 472.532 37.6845 472.046 38.5785C471.57 39.4724 471.332 40.5559 471.332 41.8288V49H469ZM482.832 51.1135C482.832 49.8211 483.469 48.7959 484.741 48.038C484.246 47.319 483.998 46.5659 483.998 45.7788C483.998 44.8848 484.29 44.0492 484.873 43.2718V43.2427C484.212 42.3876 483.882 41.4013 483.882 40.2838C483.882 38.8748 484.353 37.7137 485.295 36.8003C486.248 35.8771 487.36 35.4156 488.633 35.4156C489.644 35.4156 490.615 35.746 491.548 36.4067L491.49 36.3484C492.967 35.7362 494.531 35.4253 496.183 35.4156L496.504 37.2958C495.911 37.2375 495.323 37.2084 494.74 37.2084C494.682 37.2084 493.939 37.2472 492.51 37.325L492.233 37.0918C493.011 38.1509 493.399 39.2149 493.399 40.2838C493.399 41.5762 492.943 42.7131 492.029 43.6945C491.116 44.6662 489.984 45.1521 488.633 45.1521C487.759 45.1521 486.85 44.8508 485.908 44.2484C485.684 44.6856 485.577 45.0549 485.587 45.3561C485.587 45.7545 485.703 46.1189 485.937 46.4493C486.18 46.7797 486.617 46.9448 487.248 46.9448H489.493C490.193 46.9448 490.785 46.9691 491.271 47.0177C491.757 47.0663 492.364 47.1781 493.093 47.353C493.822 47.5182 494.429 47.8242 494.915 48.2712C495.401 48.7182 495.741 49.2915 495.936 49.9911C496.033 50.3895 496.086 50.7539 496.096 51.0843C496.096 52.2406 495.445 53.2075 494.143 53.9848C492.85 54.7622 491.291 55.1509 489.464 55.1509C487.618 55.1509 486.048 54.7622 484.756 53.9848C483.473 53.2075 482.832 52.2503 482.832 51.1135ZM484.931 51.1135C484.931 51.6285 485.198 52.0706 485.733 52.4398C486.267 52.8091 486.86 53.0666 487.511 53.2123C488.172 53.3678 488.813 53.4455 489.435 53.4455C490.688 53.4455 491.762 53.2318 492.656 52.8042C493.55 52.3767 493.997 51.8228 493.997 51.1426C493.997 49.7725 492.515 49.0875 489.551 49.0875H487.671L486.811 49.1166C486.238 49.1749 485.781 49.4033 485.441 49.8017C485.101 50.2001 484.931 50.6373 484.931 51.1135ZM485.966 40.2838C485.966 41.2361 486.209 41.9989 486.695 42.5722C487.19 43.1358 487.846 43.4176 488.662 43.4176C489.342 43.4176 489.955 43.1746 490.499 42.6888C491.043 42.2029 491.315 41.3916 491.315 40.2547C491.315 39.3024 491.072 38.5445 490.586 37.9809C490.1 37.4076 489.449 37.1209 488.633 37.1209C487.953 37.1209 487.336 37.3638 486.782 37.8497C486.238 38.3355 485.966 39.1469 485.966 40.2838ZM507.698 37.4707V35.7217H509.913V33.5353C509.913 33.4576 509.909 33.341 509.899 33.1855C509.889 33.0203 509.884 32.8989 509.884 32.8211C509.884 30.9943 510.385 29.5902 511.386 28.6088C512.396 27.6177 513.567 27.1221 514.898 27.1221C515.637 27.1221 516.424 27.229 517.26 27.4427V29.4542C516.404 29.1141 515.598 28.944 514.84 28.944C514.16 28.944 513.523 29.1432 512.931 29.5416C512.348 29.94 512.056 30.6445 512.056 31.6551V35.7217H515.438V37.4707H512.144V49H509.913V37.4707H507.698ZM516.881 42.3973C516.881 40.3858 517.522 38.6902 518.805 37.3104C520.097 35.9306 521.637 35.2407 523.425 35.2407C525.3 35.2407 526.865 35.9646 528.118 37.4124C529.372 38.8506 529.999 40.5219 529.999 42.4264C529.999 44.399 529.338 46.046 528.016 47.3675C526.704 48.6793 525.174 49.3352 523.425 49.3352C521.676 49.3352 520.145 48.6745 518.834 47.353C517.532 46.0217 516.881 44.3698 516.881 42.3973ZM519.213 42.1058C519.213 43.8548 519.635 45.1763 520.481 46.0703C521.326 46.9643 522.308 47.4113 523.425 47.4113C524.542 47.4113 525.524 46.9594 526.369 46.0557C527.215 45.1521 527.637 43.8354 527.637 42.1058C527.637 40.4344 527.215 39.1809 526.369 38.3453C525.524 37.5096 524.542 37.0918 523.425 37.0918C522.327 37.0918 521.35 37.5096 520.495 38.3453C519.64 39.1809 519.213 40.4344 519.213 42.1058ZM532.491 49V35.5613H534.575V38.2578C534.818 37.8788 535.105 37.5145 535.435 37.1646C535.775 36.8148 536.349 36.4407 537.155 36.0423C537.962 35.6439 538.846 35.435 539.808 35.4156V37.4124C539.293 37.4319 538.773 37.529 538.248 37.7039C537.733 37.8691 537.189 38.1363 536.616 38.5056C536.052 38.8748 535.596 39.4384 535.246 40.1964C534.896 40.9543 534.721 41.8385 534.721 42.8491V49H532.491ZM22.0258 84.3973C22.0258 82.3858 22.6671 80.6902 23.9497 79.3104C25.2421 77.9306 26.7823 77.2407 28.5702 77.2407C30.4456 77.2407 32.01 77.9646 33.2635 79.4124C34.517 80.8506 35.1438 82.5219 35.1438 84.4264C35.1438 86.399 34.483 88.046 33.1615 89.3675C31.8497 90.6793 30.3193 91.3352 28.5702 91.3352C26.8211 91.3352 25.2907 90.6745 23.9789 89.353C22.6768 88.0217 22.0258 86.3698 22.0258 84.3973ZM24.3579 84.1058C24.3579 85.8548 24.7806 87.1763 25.6259 88.0703C26.4713 88.9643 27.4527 89.4113 28.5702 89.4113C29.6877 89.4113 30.6691 88.9594 31.5145 88.0557C32.3598 87.1521 32.7825 85.8354 32.7825 84.1058C32.7825 82.4344 32.3598 81.1809 31.5145 80.3453C30.6691 79.5096 29.6877 79.0918 28.5702 79.0918C27.4722 79.0918 26.4956 79.5096 25.6405 80.3453C24.7854 81.1809 24.3579 82.4344 24.3579 84.1058ZM38.4524 91V77.5613H40.6242V79.6602C41.7805 78.1638 43.2332 77.4156 44.9823 77.4156C46.916 77.4156 48.1792 78.2221 48.7719 79.8351C49.9866 78.2221 51.4927 77.4156 53.2903 77.4156C54.0483 77.4156 54.6993 77.5419 55.2435 77.7945C55.7876 78.0375 56.1909 78.3241 56.4532 78.6545C56.7253 78.9849 56.9342 79.4076 57.08 79.9226C57.2355 80.4376 57.3229 80.8603 57.3424 81.1906C57.3618 81.521 57.3715 81.9243 57.3715 82.4004V91H55.0103V82.6191C55.0103 82.5802 55.0103 82.5219 55.0103 82.4441C55.0103 82.3567 54.9908 82.1964 54.952 81.9632C54.9131 81.7202 54.8596 81.4967 54.7916 81.2927C54.7236 81.0789 54.6167 80.8457 54.471 80.5931C54.3349 80.3307 54.1649 80.1072 53.9608 79.9226C53.7665 79.7282 53.509 79.5679 53.1883 79.4416C52.8774 79.3055 52.5227 79.2375 52.1243 79.2375C51.0651 79.2375 50.2926 79.6845 49.8068 80.5785C49.3209 81.4724 49.078 82.5559 49.078 83.8288V91H46.7459V82.6191C46.7459 82.279 46.7411 82.0117 46.7313 81.8174C46.7216 81.6133 46.6633 81.3267 46.5564 80.9574C46.4496 80.5882 46.2989 80.2967 46.1046 80.0829C45.92 79.8594 45.6333 79.6651 45.2446 79.4999C44.856 79.325 44.3798 79.2375 43.8162 79.2375C42.7571 79.2375 41.9846 79.6845 41.4987 80.5785C41.0226 81.4724 40.7845 82.5559 40.7845 83.8288V91H38.4524ZM62.1814 96.8156V77.7217H64.4115V79.1792C65.8691 78.0035 67.521 77.4156 69.3672 77.4156C70.7373 77.4156 71.8645 78.1055 72.7487 79.4853C73.6427 80.8554 74.0897 82.4636 74.0897 84.3098C74.0897 86.3601 73.5358 88.046 72.4281 89.3675C71.33 90.6793 70.0328 91.3352 68.5364 91.3352C67.0594 91.3352 65.7184 90.7668 64.5135 89.6299V96.8156H62.1814ZM64.5135 87.2395C64.5135 87.6768 64.7953 88.1675 65.3589 88.7116C65.9225 89.2461 66.6027 89.5133 67.3995 89.5133C68.5169 89.5133 69.5178 89.0372 70.4021 88.0849C71.2863 87.1229 71.7284 85.884 71.7284 84.3681C71.7284 83.0175 71.3495 81.8417 70.5915 80.8408C69.8433 79.8303 68.8716 79.325 67.6764 79.325C67.4529 79.325 67.2392 79.3396 67.0351 79.3687C66.8408 79.3979 66.6561 79.4513 66.4812 79.529C66.316 79.5971 66.1606 79.6651 66.0148 79.7331C65.8691 79.8011 65.7282 79.8788 65.5921 79.9663C65.4658 80.0538 65.3541 80.1412 65.2569 80.2287C65.1597 80.3064 65.0625 80.3939 64.9654 80.491C64.8779 80.5882 64.8099 80.6708 64.7613 80.7388C64.7127 80.7971 64.6593 80.8554 64.601 80.9137L64.5135 81.0303V87.2395ZM76.757 91V77.5613H78.8413V80.2578C79.0842 79.8788 79.3709 79.5145 79.7013 79.1646C80.0414 78.8148 80.6147 78.4407 81.4212 78.0423C82.2277 77.6439 83.1119 77.435 84.0739 77.4156V79.4124C83.5589 79.4319 83.0391 79.529 82.5143 79.7039C81.9993 79.8691 81.4552 80.1363 80.8819 80.5056C80.3183 80.8748 79.8616 81.4384 79.5118 82.1964C79.162 82.9543 78.9871 83.8385 78.9871 84.8491V91H76.757ZM85.5606 84.2515C85.5606 82.279 86.1582 80.6173 87.3534 79.2667C88.5583 77.916 89.9673 77.2407 91.5803 77.2407C92.1731 77.2407 92.7367 77.3378 93.2711 77.5322C93.8153 77.7168 94.3594 78.0278 94.9036 78.465C95.4574 78.9023 95.9141 79.5582 96.2737 80.4327C96.6332 81.3073 96.8421 82.3518 96.9004 83.5665V84.4264H87.6449C87.7032 85.9228 88.1599 87.1423 89.015 88.0849C89.8701 89.0177 90.8856 89.4841 92.0613 89.4841C93.5772 89.4841 95.0882 88.9351 96.5943 87.8371L96.7838 89.8048C95.268 90.8154 93.6938 91.3255 92.0613 91.3352C90.1665 91.3352 88.6069 90.6356 87.3826 89.2364C86.1679 87.8274 85.5606 86.1658 85.5606 84.2515ZM87.7907 82.794H95.1951C95.0785 82.0166 94.8647 81.3607 94.5538 80.8263C94.2428 80.2821 93.893 79.8983 93.5043 79.6748C93.1156 79.4416 92.7658 79.2861 92.4549 79.2084C92.1536 79.1306 91.8621 79.0918 91.5803 79.0918C90.5698 79.0918 89.7341 79.4804 89.0733 80.2578C88.4126 81.0352 87.985 81.8806 87.7907 82.794ZM98.6058 89.9797L98.9702 87.9537C99.009 87.9731 99.1353 88.0509 99.3491 88.1869C99.5726 88.3132 99.7378 88.4056 99.8447 88.4639C99.9613 88.5222 100.141 88.6145 100.384 88.7408C100.637 88.8574 100.865 88.9497 101.069 89.0177C101.283 89.0857 101.526 89.1586 101.798 89.2364C102.08 89.3141 102.376 89.3724 102.687 89.4113C102.998 89.4404 103.319 89.455 103.649 89.455C104.64 89.455 105.349 89.2461 105.777 88.8282C106.214 88.4007 106.433 87.9294 106.433 87.4144C106.433 86.9188 106.253 86.5059 105.894 86.1755C105.534 85.8451 105.155 85.6216 104.757 85.505C104.562 85.4467 104.12 85.3495 103.43 85.2135C102.74 85.0677 102.23 84.9463 101.9 84.8491C101.084 84.5868 100.36 84.1446 99.7281 83.5227C99.1062 82.8911 98.7952 82.1089 98.7952 81.1761C98.7952 80.7194 98.8633 80.287 98.9993 79.8788C99.1353 79.4707 99.3686 79.0529 99.6989 78.6253C100.029 78.1978 100.535 77.8626 101.215 77.6196C101.905 77.367 102.726 77.2407 103.678 77.2407C105.106 77.2407 106.559 77.5468 108.036 78.1589L107.715 80.1412C107.696 80.1218 107.579 80.0683 107.366 79.9809C107.162 79.8837 107.045 79.8254 107.016 79.806C106.987 79.7865 106.875 79.738 106.681 79.6602C106.496 79.5825 106.365 79.5339 106.287 79.5145C106.219 79.4853 106.098 79.4367 105.923 79.3687C105.748 79.3007 105.607 79.2618 105.5 79.2521C105.403 79.2424 105.257 79.2132 105.063 79.1646C104.878 79.1161 104.713 79.0869 104.567 79.0772C104.421 79.0675 104.247 79.0578 104.042 79.048C103.848 79.0383 103.639 79.0335 103.416 79.0335C102.502 79.0335 101.856 79.2181 101.477 79.5873C101.098 79.9566 100.909 80.3793 100.909 80.8554C100.909 81.5162 101.171 81.9923 101.696 82.2838C102.23 82.5656 102.974 82.7891 103.926 82.9543C104.878 83.1195 105.553 83.2944 105.952 83.479C106.671 83.7997 107.283 84.2807 107.788 84.922C108.294 85.5536 108.546 86.3164 108.546 87.2104C108.546 87.6671 108.478 88.114 108.342 88.5513C108.206 88.9886 107.973 89.4258 107.643 89.8631C107.312 90.3004 106.802 90.655 106.112 90.9271C105.432 91.1992 104.621 91.3352 103.678 91.3352C101.929 91.3255 100.238 90.8737 98.6058 89.9797ZM110.033 89.9797L110.397 87.9537C110.436 87.9731 110.563 88.0509 110.776 88.1869C111 88.3132 111.165 88.4056 111.272 88.4639C111.389 88.5222 111.568 88.6145 111.811 88.7408C112.064 88.8574 112.292 88.9497 112.496 89.0177C112.71 89.0857 112.953 89.1586 113.225 89.2364C113.507 89.3141 113.803 89.3724 114.114 89.4113C114.425 89.4404 114.746 89.455 115.076 89.455C116.067 89.455 116.777 89.2461 117.204 88.8282C117.641 88.4007 117.86 87.9294 117.86 87.4144C117.86 86.9188 117.68 86.5059 117.321 86.1755C116.961 85.8451 116.582 85.6216 116.184 85.505C115.99 85.4467 115.547 85.3495 114.858 85.2135C114.168 85.0677 113.657 84.9463 113.327 84.8491C112.511 84.5868 111.787 84.1446 111.155 83.5227C110.533 82.8911 110.222 82.1089 110.222 81.1761C110.222 80.7194 110.291 80.287 110.427 79.8788C110.563 79.4707 110.796 79.0529 111.126 78.6253C111.457 78.1978 111.962 77.8626 112.642 77.6196C113.332 77.367 114.153 77.2407 115.105 77.2407C116.534 77.2407 117.986 77.5468 119.463 78.1589L119.143 80.1412C119.123 80.1218 119.007 80.0683 118.793 79.9809C118.589 79.8837 118.472 79.8254 118.443 79.806C118.414 79.7865 118.302 79.738 118.108 79.6602C117.923 79.5825 117.792 79.5339 117.714 79.5145C117.646 79.4853 117.525 79.4367 117.35 79.3687C117.175 79.3007 117.034 79.2618 116.927 79.2521C116.83 79.2424 116.684 79.2132 116.49 79.1646C116.305 79.1161 116.14 79.0869 115.994 79.0772C115.849 79.0675 115.674 79.0578 115.47 79.048C115.275 79.0383 115.066 79.0335 114.843 79.0335C113.93 79.0335 113.283 79.2181 112.904 79.5873C112.525 79.9566 112.336 80.3793 112.336 80.8554C112.336 81.5162 112.598 81.9923 113.123 82.2838C113.657 82.5656 114.401 82.7891 115.353 82.9543C116.305 83.1195 116.981 83.2944 117.379 83.479C118.098 83.7997 118.71 84.2807 119.216 84.922C119.721 85.5536 119.974 86.3164 119.974 87.2104C119.974 87.6671 119.906 88.114 119.769 88.5513C119.633 88.9886 119.4 89.4258 119.07 89.8631C118.739 90.3004 118.229 90.655 117.539 90.9271C116.859 91.1992 116.048 91.3352 115.105 91.3352C113.356 91.3255 111.665 90.8737 110.033 89.9797ZM122.874 73.3927V70.7254H125.556V73.3927H122.874ZM123.078 91V77.7217H125.308V91H123.078ZM128.69 84.3973C128.69 82.3858 129.331 80.6902 130.614 79.3104C131.906 77.9306 133.446 77.2407 135.234 77.2407C137.11 77.2407 138.674 77.9646 139.927 79.4124C141.181 80.8506 141.808 82.5219 141.808 84.4264C141.808 86.399 141.147 88.046 139.825 89.3675C138.514 90.6793 136.983 91.3352 135.234 91.3352C133.485 91.3352 131.955 90.6745 130.643 89.353C129.341 88.0217 128.69 86.3698 128.69 84.3973ZM131.022 84.1058C131.022 85.8548 131.444 87.1763 132.29 88.0703C133.135 88.9643 134.117 89.4113 135.234 89.4113C136.352 89.4113 137.333 88.9594 138.178 88.0557C139.024 87.1521 139.446 85.8354 139.446 84.1058C139.446 82.4344 139.024 81.1809 138.178 80.3453C137.333 79.5096 136.352 79.0918 135.234 79.0918C134.136 79.0918 133.16 79.5096 132.304 80.3453C131.449 81.1809 131.022 82.4344 131.022 84.1058ZM145.116 91V77.5613H147.288V79.6602C148.444 78.1638 149.897 77.4156 151.646 77.4156C152.385 77.4156 153.016 77.5273 153.541 77.7508C154.075 77.9646 154.479 78.2318 154.751 78.5525C155.033 78.8731 155.246 79.2764 155.392 79.7622C155.548 80.2481 155.645 80.6805 155.684 81.0595C155.723 81.4384 155.742 81.8854 155.742 82.4004V91H153.41V82.6191C153.41 82.279 153.405 82.0117 153.395 81.8174C153.386 81.6133 153.327 81.3267 153.22 80.9574C153.113 80.5882 152.963 80.2967 152.769 80.0829C152.584 79.8594 152.297 79.6651 151.909 79.4999C151.52 79.325 151.044 79.2375 150.48 79.2375C149.421 79.2375 148.649 79.6845 148.163 80.5785C147.687 81.4724 147.448 82.5559 147.448 83.8288V91H145.116ZM161.018 91V88.493H163.525V90.5773L163.496 91L162.272 94.7313H161.018L161.791 91H161.018ZM199.6 73.3927V70.7254H202.282V73.3927H199.6ZM199.804 91V77.7217H202.034V91H199.804ZM206.946 91V77.5613H209.03V80.2578C209.273 79.8788 209.56 79.5145 209.89 79.1646C210.23 78.8148 210.804 78.4407 211.61 78.0423C212.417 77.6439 213.301 77.435 214.263 77.4156V79.4124C213.748 79.4319 213.228 79.529 212.703 79.7039C212.188 79.8691 211.644 80.1363 211.071 80.5056C210.507 80.8748 210.05 81.4384 209.701 82.1964C209.351 82.9543 209.176 83.8385 209.176 84.8491V91H206.946ZM215.779 84.339C215.779 82.4927 216.371 80.8506 217.557 79.4124C218.752 77.9646 220.346 77.2407 222.338 77.2407C223.271 77.2407 224.043 77.333 224.655 77.5176C225.277 77.6925 226.05 78.0375 226.973 78.5525L226.608 80.5202C225.637 79.908 224.893 79.529 224.378 79.3833C223.805 79.2278 223.115 79.1501 222.309 79.1501C220.958 79.1501 219.918 79.6651 219.189 80.6951C218.461 81.7154 218.096 82.93 218.096 84.339C218.096 85.816 218.485 87.0306 219.262 87.9829C220.04 88.9351 221.045 89.4113 222.279 89.4113C223.834 89.4113 225.399 88.8768 226.973 87.808L227.118 89.8048C225.544 90.8154 223.922 91.3255 222.25 91.3352C220.423 91.3352 218.888 90.655 217.644 89.2947C216.401 87.9246 215.779 86.2727 215.779 84.339ZM230.383 87.3561V77.7217H232.715V87.7205C232.735 88.4201 232.895 88.9206 233.196 89.2218C233.507 89.5133 234.139 89.659 235.091 89.659C236.121 89.659 236.952 89.387 237.584 88.8428C238.215 88.2889 238.57 87.6525 238.648 86.9334C238.667 86.7391 238.677 86.4524 238.677 86.0735V77.7217H241.009V91H238.735V89.5716C237.385 90.7474 235.645 91.3352 233.517 91.3352C232.924 91.3352 232.414 91.2381 231.987 91.0437C231.569 90.8591 231.253 90.6453 231.039 90.4024C230.835 90.1595 230.68 89.8242 230.573 89.3967C230.466 88.9691 230.408 88.6339 230.398 88.391C230.388 88.1383 230.383 87.7934 230.383 87.3561ZM245.629 73.3927V70.7254H248.311V73.3927H245.629ZM245.833 91V77.7217H248.064V91H245.833ZM251.095 79.4707V77.7217H253.661V73.9612H255.745V77.7217H259.957V79.4707H255.745V86.8168C255.745 88.5464 256.284 89.4113 257.363 89.4113C258.198 89.4113 259.073 89.0857 259.986 88.4347L260.467 90.1983C259.058 90.9563 257.586 91.3352 256.051 91.3352C254.418 91.3352 253.602 90.0574 253.602 87.5019V79.4707H251.095ZM274.125 91V70.2881H281.456C283.448 70.2881 285.163 70.7545 286.601 71.6874C288.059 72.6397 289.181 73.9369 289.968 75.5791C290.765 77.2212 291.163 78.9606 291.163 80.7971C291.163 83.5665 290.347 85.884 288.715 87.7497C287.082 89.6153 285.163 90.6793 282.957 90.9417C282.637 90.9806 282.156 91 281.514 91H274.125ZM276.719 89.3238H280.99C283.477 89.3238 285.416 88.4104 286.805 86.5836C287.981 85.0483 288.569 83.1292 288.569 80.8263C288.569 78.2998 287.903 76.1912 286.572 74.5005C285.251 72.8 283.39 71.9497 280.99 71.9497H276.719V89.3238ZM295.041 73.3927V70.7254H297.722V73.3927H295.041ZM295.245 91V77.7217H297.475V91H295.245ZM300.769 89.9797L301.133 87.9537C301.172 87.9731 301.298 88.0509 301.512 88.1869C301.736 88.3132 301.901 88.4056 302.008 88.4639C302.124 88.5222 302.304 88.6145 302.547 88.7408C302.8 88.8574 303.028 88.9497 303.232 89.0177C303.446 89.0857 303.689 89.1586 303.961 89.2364C304.243 89.3141 304.539 89.3724 304.85 89.4113C305.161 89.4404 305.482 89.455 305.812 89.455C306.803 89.455 307.512 89.2461 307.94 88.8282C308.377 88.4007 308.596 87.9294 308.596 87.4144C308.596 86.9188 308.416 86.5059 308.057 86.1755C307.697 85.8451 307.318 85.6216 306.92 85.505C306.725 85.4467 306.283 85.3495 305.593 85.2135C304.903 85.0677 304.393 84.9463 304.063 84.8491C303.247 84.5868 302.523 84.1446 301.891 83.5227C301.269 82.8911 300.958 82.1089 300.958 81.1761C300.958 80.7194 301.026 80.287 301.162 79.8788C301.298 79.4707 301.532 79.0529 301.862 78.6253C302.192 78.1978 302.698 77.8626 303.378 77.6196C304.068 77.367 304.889 77.2407 305.841 77.2407C307.269 77.2407 308.722 77.5468 310.199 78.1589L309.879 80.1412C309.859 80.1218 309.742 80.0683 309.529 79.9809C309.325 79.8837 309.208 79.8254 309.179 79.806C309.15 79.7865 309.038 79.738 308.844 79.6602C308.659 79.5825 308.528 79.5339 308.45 79.5145C308.382 79.4853 308.261 79.4367 308.086 79.3687C307.911 79.3007 307.77 79.2618 307.663 79.2521C307.566 79.2424 307.42 79.2132 307.226 79.1646C307.041 79.1161 306.876 79.0869 306.73 79.0772C306.584 79.0675 306.41 79.0578 306.205 79.048C306.011 79.0383 305.802 79.0335 305.579 79.0335C304.665 79.0335 304.019 79.2181 303.64 79.5873C303.261 79.9566 303.072 80.3793 303.072 80.8554C303.072 81.5162 303.334 81.9923 303.859 82.2838C304.393 82.5656 305.137 82.7891 306.089 82.9543C307.041 83.1195 307.716 83.2944 308.115 83.479C308.834 83.7997 309.446 84.2807 309.951 84.922C310.457 85.5536 310.709 86.3164 310.709 87.2104C310.709 87.6671 310.641 88.114 310.505 88.5513C310.369 88.9886 310.136 89.4258 309.806 89.8631C309.475 90.3004 308.965 90.655 308.275 90.9271C307.595 91.1992 306.784 91.3352 305.841 91.3352C304.092 91.3255 302.401 90.8737 300.769 89.9797ZM312.444 84.339C312.444 82.4927 313.037 80.8506 314.222 79.4124C315.417 77.9646 317.011 77.2407 319.003 77.2407C319.936 77.2407 320.708 77.333 321.32 77.5176C321.942 77.6925 322.715 78.0375 323.638 78.5525L323.273 80.5202C322.302 79.908 321.558 79.529 321.043 79.3833C320.47 79.2278 319.78 79.1501 318.974 79.1501C317.623 79.1501 316.583 79.6651 315.854 80.6951C315.126 81.7154 314.761 82.93 314.761 84.339C314.761 85.816 315.15 87.0306 315.927 87.9829C316.705 88.9351 317.71 89.4113 318.944 89.4113C320.499 89.4113 322.064 88.8768 323.638 87.808L323.784 89.8048C322.209 90.8154 320.587 91.3255 318.915 91.3352C317.089 91.3352 315.553 90.655 314.309 89.2947C313.066 87.9246 312.444 86.2727 312.444 84.339ZM325.547 84.3973C325.547 82.3858 326.189 80.6902 327.471 79.3104C328.764 77.9306 330.304 77.2407 332.092 77.2407C333.967 77.2407 335.531 77.9646 336.785 79.4124C338.038 80.8506 338.665 82.5219 338.665 84.4264C338.665 86.399 338.004 88.046 336.683 89.3675C335.371 90.6793 333.841 91.3352 332.092 91.3352C330.343 91.3352 328.812 90.6745 327.5 89.353C326.198 88.0217 325.547 86.3698 325.547 84.3973ZM327.879 84.1058C327.879 85.8548 328.302 87.1763 329.147 88.0703C329.993 88.9643 330.974 89.4113 332.092 89.4113C333.209 89.4113 334.191 88.9594 335.036 88.0557C335.881 87.1521 336.304 85.8354 336.304 84.1058C336.304 82.4344 335.881 81.1809 335.036 80.3453C334.191 79.5096 333.209 79.0918 332.092 79.0918C330.994 79.0918 330.017 79.5096 329.162 80.3453C328.307 81.1809 327.879 82.4344 327.879 84.1058ZM340.006 77.7217H342.295L345.078 84.9949C345.934 87.4241 346.41 88.9303 346.507 89.5133C346.662 88.5027 348.057 84.5722 350.69 77.7217H352.891L347.76 91H345.137L340.006 77.7217ZM354.363 84.2515C354.363 82.279 354.961 80.6173 356.156 79.2667C357.361 77.916 358.77 77.2407 360.383 77.2407C360.976 77.2407 361.539 77.3378 362.074 77.5322C362.618 77.7168 363.162 78.0278 363.706 78.465C364.26 78.9023 364.717 79.5582 365.076 80.4327C365.436 81.3073 365.645 82.3518 365.703 83.5665V84.4264H356.447C356.506 85.9228 356.962 87.1423 357.818 88.0849C358.673 89.0177 359.688 89.4841 360.864 89.4841C362.38 89.4841 363.891 88.9351 365.397 87.8371L365.586 89.8048C364.07 90.8154 362.496 91.3255 360.864 91.3352C358.969 91.3352 357.409 90.6356 356.185 89.2364C354.97 87.8274 354.363 86.1658 354.363 84.2515ZM356.593 82.794H363.998C363.881 82.0166 363.667 81.3607 363.356 80.8263C363.045 80.2821 362.695 79.8983 362.307 79.6748C361.918 79.4416 361.568 79.2861 361.257 79.2084C360.956 79.1306 360.665 79.0918 360.383 79.0918C359.372 79.0918 358.537 79.4804 357.876 80.2578C357.215 81.0352 356.787 81.8806 356.593 82.794ZM369.026 91V77.5613H371.11V80.2578C371.353 79.8788 371.64 79.5145 371.97 79.1646C372.31 78.8148 372.884 78.4407 373.69 78.0423C374.497 77.6439 375.381 77.435 376.343 77.4156V79.4124C375.828 79.4319 375.308 79.529 374.783 79.7039C374.268 79.8691 373.724 80.1363 373.151 80.5056C372.587 80.8748 372.131 81.4384 371.781 82.1964C371.431 82.9543 371.256 83.8385 371.256 84.8491V91H369.026ZM377.232 77.7217H379.579C380.852 80.6465 381.809 82.9349 382.45 84.5868C383.092 86.2387 383.466 87.2784 383.573 87.7059C383.679 88.1335 383.791 88.7359 383.908 89.5133C383.947 88.1238 385.273 84.1932 387.887 77.7217H390.117L383.645 93.6819C383.072 95.0131 382.533 95.9168 382.028 96.393C381.532 96.8788 380.925 97.1217 380.206 97.1217C379.389 97.1217 378.665 97.0391 378.034 96.874L377.888 94.9354C378.947 95.2755 379.671 95.4455 380.06 95.4455C380.594 95.4455 380.998 95.2512 381.27 94.8625C381.542 94.4738 381.955 93.6042 382.509 92.2535C382.645 91.9134 382.756 91.6462 382.844 91.4518C382.921 91.2769 382.96 91.1215 382.96 90.9854C382.96 90.8397 382.912 90.6648 382.815 90.4607L377.232 77.7217ZM390.962 91V88.493H393.469V90.5773L393.44 91L392.216 94.7313H390.962L391.735 91H390.962ZM407.651 87.633C407.651 86.8946 407.928 86.2532 408.482 85.7091C409.046 85.1552 409.779 84.7471 410.683 84.4847C411.587 84.2126 412.471 84.0134 413.336 83.8871C414.201 83.7511 415.07 83.6831 415.945 83.6831V82.6774C415.906 81.4044 415.648 80.4862 415.172 79.9226C414.677 79.3298 414.05 79.0335 413.292 79.0335C411.757 79.0335 410.265 79.5388 408.817 80.5493L408.642 78.5525C410.139 77.6779 411.698 77.2407 413.321 77.2407C414.691 77.2407 415.838 77.6925 416.761 78.5962C417.694 79.4999 418.199 80.5979 418.277 81.8903V91H416.018V89.9506C415.94 90.0283 415.755 90.1595 415.464 90.3441C415.172 90.519 414.609 90.7279 413.773 90.9708C412.937 91.2138 412.034 91.3352 411.062 91.3352C409.925 91.3352 409.07 90.932 408.497 90.1255C407.933 89.319 407.651 88.4881 407.651 87.633ZM409.838 87.6039C409.838 88.1383 410.1 88.5853 410.625 88.9448C411.149 89.3044 411.81 89.4841 412.607 89.4841C413.462 89.4841 414.23 89.3044 414.91 88.9448C415.6 88.5853 415.945 87.978 415.945 87.1229V85.2427C415.333 85.2427 414.706 85.2815 414.065 85.3593C413.433 85.437 412.777 85.5585 412.097 85.7236C411.426 85.8791 410.882 86.122 410.464 86.4524C410.047 86.7828 409.838 87.1666 409.838 87.6039ZM423.072 91V77.5613H425.244V79.6602C426.4 78.1638 427.853 77.4156 429.602 77.4156C430.341 77.4156 430.972 77.5273 431.497 77.7508C432.031 77.9646 432.435 78.2318 432.707 78.5525C432.989 78.8731 433.202 79.2764 433.348 79.7622C433.504 80.2481 433.601 80.6805 433.64 81.0595C433.678 81.4384 433.698 81.8854 433.698 82.4004V91H431.366V82.6191C431.366 82.279 431.361 82.0117 431.351 81.8174C431.342 81.6133 431.283 81.3267 431.176 80.9574C431.069 80.5882 430.919 80.2967 430.724 80.0829C430.54 79.8594 430.253 79.6651 429.865 79.4999C429.476 79.325 429 79.2375 428.436 79.2375C427.377 79.2375 426.604 79.6845 426.119 80.5785C425.642 81.4724 425.404 82.5559 425.404 83.8288V91H423.072ZM437.152 84.3973C437.152 82.4247 437.667 80.7631 438.697 79.4124C439.737 78.0618 440.991 77.3864 442.458 77.3864C443.974 77.3864 445.417 77.9354 446.787 79.0335V69.4427H449.061V91H446.699V89.455C445.407 90.7085 443.935 91.3352 442.283 91.3352C440.806 91.3352 439.582 90.6405 438.61 89.2509C437.638 87.8614 437.152 86.2435 437.152 84.3973ZM439.47 84.3681C439.47 86.1366 439.888 87.4338 440.723 88.2598C441.559 89.076 442.487 89.4841 443.507 89.4841C444.343 89.4841 445.081 89.2023 445.723 88.6388C446.374 88.0655 446.699 87.5213 446.699 87.0063V81.2927C446.699 80.9137 446.49 80.5299 446.073 80.1412C445.431 79.5485 444.693 79.2472 443.857 79.2375H443.799C443.323 79.2375 442.851 79.3298 442.385 79.5145C441.918 79.6894 441.457 79.9614 441 80.3307C440.544 80.6999 440.174 81.2344 439.892 81.934C439.611 82.6239 439.47 83.4353 439.47 84.3681ZM462.514 72.4016V70.4339H480.66V72.4016H476.419L472.921 72.3724V91H470.268V72.3724L466.741 72.4016H462.514ZM480.587 87.633C480.587 86.8946 480.864 86.2532 481.418 85.7091C481.982 85.1552 482.715 84.7471 483.619 84.4847C484.523 84.2126 485.407 84.0134 486.272 83.8871C487.137 83.7511 488.006 83.6831 488.881 83.6831V82.6774C488.842 81.4044 488.585 80.4862 488.108 79.9226C487.613 79.3298 486.986 79.0335 486.228 79.0335C484.693 79.0335 483.201 79.5388 481.754 80.5493L481.579 78.5525C483.075 77.6779 484.635 77.2407 486.257 77.2407C487.627 77.2407 488.774 77.6925 489.697 78.5962C490.63 79.4999 491.135 80.5979 491.213 81.8903V91H488.954V89.9506C488.876 90.0283 488.691 90.1595 488.4 90.3441C488.108 90.519 487.545 90.7279 486.709 90.9708C485.874 91.2138 484.97 91.3352 483.998 91.3352C482.861 91.3352 482.006 90.932 481.433 90.1255C480.869 89.319 480.587 88.4881 480.587 87.633ZM482.774 87.6039C482.774 88.1383 483.036 88.5853 483.561 88.9448C484.086 89.3044 484.746 89.4841 485.543 89.4841C486.398 89.4841 487.166 89.3044 487.846 88.9448C488.536 88.5853 488.881 87.978 488.881 87.1229V85.2427C488.269 85.2427 487.642 85.2815 487.001 85.3593C486.369 85.437 485.713 85.5585 485.033 85.7236C484.363 85.8791 483.818 86.122 483.401 86.4524C482.983 86.7828 482.774 87.1666 482.774 87.6039ZM495.192 91V77.5613H497.276V80.2578C497.519 79.8788 497.806 79.5145 498.136 79.1646C498.477 78.8148 499.05 78.4407 499.856 78.0423C500.663 77.6439 501.547 77.435 502.509 77.4156V79.4124C501.994 79.4319 501.474 79.529 500.95 79.7039C500.434 79.8691 499.89 80.1363 499.317 80.5056C498.753 80.8748 498.297 81.4384 497.947 82.1964C497.597 82.9543 497.422 83.8385 497.422 84.8491V91H495.192ZM503.777 93.1135C503.777 91.8211 504.414 90.7959 505.687 90.038C505.191 89.319 504.943 88.5659 504.943 87.7788C504.943 86.8848 505.235 86.0492 505.818 85.2718V85.2427C505.157 84.3876 504.827 83.4013 504.827 82.2838C504.827 80.8748 505.298 79.7137 506.24 78.8003C507.193 77.8771 508.305 77.4156 509.578 77.4156C510.589 77.4156 511.561 77.746 512.493 78.4067L512.435 78.3484C513.912 77.7362 515.476 77.4253 517.128 77.4156L517.449 79.2958C516.856 79.2375 516.268 79.2084 515.685 79.2084C515.627 79.2084 514.884 79.2472 513.455 79.325L513.178 79.0918C513.956 80.1509 514.344 81.2149 514.344 82.2838C514.344 83.5762 513.888 84.7131 512.974 85.6945C512.061 86.6662 510.929 87.1521 509.578 87.1521C508.704 87.1521 507.795 86.8508 506.853 86.2484C506.629 86.6856 506.522 87.0549 506.532 87.3561C506.532 87.7545 506.649 88.1189 506.882 88.4493C507.125 88.7797 507.562 88.9448 508.194 88.9448H510.438C511.138 88.9448 511.731 88.9691 512.216 89.0177C512.702 89.0663 513.31 89.1781 514.038 89.353C514.767 89.5182 515.374 89.8242 515.86 90.2712C516.346 90.7182 516.686 91.2915 516.881 91.9911C516.978 92.3895 517.031 92.7539 517.041 93.0843C517.041 94.2406 516.39 95.2075 515.088 95.9848C513.795 96.7622 512.236 97.1509 510.409 97.1509C508.563 97.1509 506.994 96.7622 505.701 95.9848C504.419 95.2075 503.777 94.2503 503.777 93.1135ZM505.876 93.1135C505.876 93.6285 506.143 94.0706 506.678 94.4398C507.212 94.8091 507.805 95.0666 508.456 95.2123C509.117 95.3678 509.758 95.4455 510.38 95.4455C511.633 95.4455 512.707 95.2318 513.601 94.8042C514.495 94.3767 514.942 93.8228 514.942 93.1426C514.942 91.7725 513.46 91.0875 510.497 91.0875H508.616L507.756 91.1166C507.183 91.1749 506.726 91.4033 506.386 91.8017C506.046 92.2001 505.876 92.6373 505.876 93.1135ZM506.911 82.2838C506.911 83.2361 507.154 83.9989 507.64 84.5722C508.135 85.1358 508.791 85.4176 509.607 85.4176C510.288 85.4176 510.9 85.1746 511.444 84.6888C511.988 84.2029 512.26 83.3916 512.26 82.2547C512.26 81.3024 512.017 80.5445 511.531 79.9809C511.046 79.4076 510.394 79.1209 509.578 79.1209C508.898 79.1209 508.281 79.3638 507.727 79.8497C507.183 80.3355 506.911 81.1469 506.911 82.2838ZM518.921 84.2515C518.921 82.279 519.519 80.6173 520.714 79.2667C521.919 77.916 523.328 77.2407 524.941 77.2407C525.534 77.2407 526.097 77.3378 526.632 77.5322C527.176 77.7168 527.72 78.0278 528.264 78.465C528.818 78.9023 529.275 79.5582 529.634 80.4327C529.994 81.3073 530.203 82.3518 530.261 83.5665V84.4264H521.005C521.064 85.9228 521.52 87.1423 522.376 88.0849C523.231 89.0177 524.246 89.4841 525.422 89.4841C526.938 89.4841 528.449 88.9351 529.955 87.8371L530.144 89.8048C528.628 90.8154 527.054 91.3255 525.422 91.3352C523.527 91.3352 521.967 90.6356 520.743 89.2364C519.528 87.8274 518.921 86.1658 518.921 84.2515ZM521.151 82.794H528.556C528.439 82.0166 528.225 81.3607 527.914 80.8263C527.603 80.2821 527.254 79.8983 526.865 79.6748C526.476 79.4416 526.126 79.2861 525.815 79.2084C525.514 79.1306 525.223 79.0918 524.941 79.0918C523.93 79.0918 523.095 79.4804 522.434 80.2578C521.773 81.0352 521.346 81.8806 521.151 82.794ZM531.704 79.4707V77.7217H534.269V73.9612H536.354V77.7217H540.566V79.4707H536.354V86.8168C536.354 88.5464 536.893 89.4113 537.971 89.4113C538.807 89.4113 539.682 89.0857 540.595 88.4347L541.076 90.1983C539.667 90.9563 538.195 91.3352 536.66 91.3352C535.027 91.3352 534.211 90.0574 534.211 87.5019V79.4707H531.704ZM542.971 84.2515C542.971 82.279 543.568 80.6173 544.764 79.2667C545.969 77.916 547.378 77.2407 548.991 77.2407C549.583 77.2407 550.147 77.3378 550.681 77.5322C551.225 77.7168 551.77 78.0278 552.314 78.465C552.868 78.9023 553.324 79.5582 553.684 80.4327C554.043 81.3073 554.252 82.3518 554.311 83.5665V84.4264H545.055C545.113 85.9228 545.57 87.1423 546.425 88.0849C547.28 89.0177 548.296 89.4841 549.472 89.4841C550.987 89.4841 552.498 88.9351 554.005 87.8371L554.194 89.8048C552.678 90.8154 551.104 91.3255 549.472 91.3352C547.577 91.3352 546.017 90.6356 544.793 89.2364C543.578 87.8274 542.971 86.1658 542.971 84.2515ZM545.201 82.794H552.605C552.489 82.0166 552.275 81.3607 551.964 80.8263C551.653 80.2821 551.303 79.8983 550.915 79.6748C550.526 79.4416 550.176 79.2861 549.865 79.2084C549.564 79.1306 549.272 79.0918 548.991 79.0918C547.98 79.0918 547.144 79.4804 546.484 80.2578C545.823 81.0352 545.395 81.8806 545.201 82.794ZM556.264 84.3973C556.264 82.4247 556.779 80.7631 557.809 79.4124C558.849 78.0618 560.102 77.3864 561.569 77.3864C563.085 77.3864 564.528 77.9354 565.898 79.0335V69.4427H568.172V91H565.811V89.455C564.518 90.7085 563.046 91.3352 561.394 91.3352C559.917 91.3352 558.693 90.6405 557.721 89.2509C556.75 87.8614 556.264 86.2435 556.264 84.3973ZM558.581 84.3681C558.581 86.1366 558.999 87.4338 559.835 88.2598C560.67 89.076 561.598 89.4841 562.619 89.4841C563.454 89.4841 564.193 89.2023 564.834 88.6388C565.485 88.0655 565.811 87.5213 565.811 87.0063V81.2927C565.811 80.9137 565.602 80.5299 565.184 80.1412C564.543 79.5485 563.804 79.2472 562.969 79.2375H562.91C562.434 79.2375 561.963 79.3298 561.496 79.5145C561.03 79.6894 560.568 79.9614 560.112 80.3307C559.655 80.6999 559.286 81.2344 559.004 81.934C558.722 82.6239 558.581 83.4353 558.581 84.3681ZM602.454 84.3973C602.454 82.3858 603.095 80.6902 604.378 79.3104C605.67 77.9306 607.21 77.2407 608.998 77.2407C610.873 77.2407 612.438 77.9646 613.691 79.4124C614.945 80.8506 615.572 82.5219 615.572 84.4264C615.572 86.399 614.911 88.046 613.589 89.3675C612.278 90.6793 610.747 91.3352 608.998 91.3352C607.249 91.3352 605.719 90.6745 604.407 89.353C603.105 88.0217 602.454 86.3698 602.454 84.3973ZM604.786 84.1058C604.786 85.8548 605.208 87.1763 606.054 88.0703C606.899 88.9643 607.881 89.4113 608.998 89.4113C610.116 89.4113 611.097 88.9594 611.942 88.0557C612.788 87.1521 613.21 85.8354 613.21 84.1058C613.21 82.4344 612.788 81.1809 611.942 80.3453C611.097 79.5096 610.116 79.0918 608.998 79.0918C607.9 79.0918 606.924 79.5096 606.068 80.3453C605.213 81.1809 604.786 82.4344 604.786 84.1058ZM618.064 91V77.5613H620.148V80.2578C620.391 79.8788 620.678 79.5145 621.008 79.1646C621.348 78.8148 621.922 78.4407 622.728 78.0423C623.535 77.6439 624.419 77.435 625.381 77.4156V79.4124C624.866 79.4319 624.346 79.529 623.821 79.7039C623.306 79.8691 622.762 80.1363 622.189 80.5056C621.625 80.8748 621.169 81.4384 620.819 82.1964C620.469 82.9543 620.294 83.8385 620.294 84.8491V91H618.064ZM628.267 91V77.5613H630.351V80.2578C630.594 79.8788 630.881 79.5145 631.211 79.1646C631.551 78.8148 632.125 78.4407 632.931 78.0423C633.738 77.6439 634.622 77.435 635.584 77.4156V79.4124C635.069 79.4319 634.549 79.529 634.024 79.7039C633.509 79.8691 632.965 80.1363 632.392 80.5056C631.828 80.8748 631.372 81.4384 631.022 82.1964C630.672 82.9543 630.497 83.8385 630.497 84.8491V91H628.267ZM637.071 84.2515C637.071 82.279 637.668 80.6173 638.863 79.2667C640.068 77.916 641.477 77.2407 643.09 77.2407C643.683 77.2407 644.247 77.3378 644.781 77.5322C645.325 77.7168 645.869 78.0278 646.414 78.465C646.968 78.9023 647.424 79.5582 647.784 80.4327C648.143 81.3073 648.352 82.3518 648.41 83.5665V84.4264H639.155C639.213 85.9228 639.67 87.1423 640.525 88.0849C641.38 89.0177 642.396 89.4841 643.571 89.4841C645.087 89.4841 646.598 88.9351 648.104 87.8371L648.294 89.8048C646.778 90.8154 645.204 91.3255 643.571 91.3352C641.677 91.3352 640.117 90.6356 638.893 89.2364C637.678 87.8274 637.071 86.1658 637.071 84.2515ZM639.301 82.794H646.705C646.589 82.0166 646.375 81.3607 646.064 80.8263C645.753 80.2821 645.403 79.8983 645.014 79.6748C644.626 79.4416 644.276 79.2861 643.965 79.2084C643.664 79.1306 643.372 79.0918 643.09 79.0918C642.08 79.0918 641.244 79.4804 640.583 80.2578C639.923 81.0352 639.495 81.8806 639.301 82.794ZM650.364 84.339C650.364 82.4927 650.956 80.8506 652.142 79.4124C653.337 77.9646 654.931 77.2407 656.923 77.2407C657.855 77.2407 658.628 77.333 659.24 77.5176C659.862 77.6925 660.634 78.0375 661.558 78.5525L661.193 80.5202C660.221 79.908 659.478 79.529 658.963 79.3833C658.39 79.2278 657.7 79.1501 656.893 79.1501C655.543 79.1501 654.503 79.6651 653.774 80.6951C653.045 81.7154 652.681 82.93 652.681 84.339C652.681 85.816 653.07 87.0306 653.847 87.9829C654.624 88.9351 655.63 89.4113 656.864 89.4113C658.419 89.4113 659.983 88.8768 661.558 87.808L661.703 89.8048C660.129 90.8154 658.506 91.3255 656.835 91.3352C655.008 91.3352 653.473 90.655 652.229 89.2947C650.985 87.9246 650.364 86.2727 650.364 84.339ZM663.117 79.4707V77.7217H665.682V73.9612H667.767V77.7217H671.979V79.4707H667.767V86.8168C667.767 88.5464 668.306 89.4113 669.385 89.4113C670.22 89.4113 671.095 89.0857 672.008 88.4347L672.489 90.1983C671.08 90.9563 669.608 91.3352 668.073 91.3352C666.44 91.3352 665.624 90.0574 665.624 87.5019V79.4707H663.117ZM675.579 73.3927V70.7254H678.261V73.3927H675.579ZM675.783 91V77.7217H678.013V91H675.783ZM681.395 84.3973C681.395 82.3858 682.036 80.6902 683.319 79.3104C684.611 77.9306 686.151 77.2407 687.939 77.2407C689.815 77.2407 691.379 77.9646 692.633 79.4124C693.886 80.8506 694.513 82.5219 694.513 84.4264C694.513 86.399 693.852 88.046 692.531 89.3675C691.219 90.6793 689.688 91.3352 687.939 91.3352C686.19 91.3352 684.66 90.6745 683.348 89.353C682.046 88.0217 681.395 86.3698 681.395 84.3973ZM683.727 84.1058C683.727 85.8548 684.15 87.1763 684.995 88.0703C685.841 88.9643 686.822 89.4113 687.939 89.4113C689.057 89.4113 690.038 88.9594 690.884 88.0557C691.729 87.1521 692.152 85.8354 692.152 84.1058C692.152 82.4344 691.729 81.1809 690.884 80.3453C690.038 79.5096 689.057 79.0918 687.939 79.0918C686.841 79.0918 685.865 79.5096 685.01 80.3453C684.155 81.1809 683.727 82.4344 683.727 84.1058ZM697.822 91V77.5613H699.993V79.6602C701.15 78.1638 702.602 77.4156 704.351 77.4156C705.09 77.4156 705.721 77.5273 706.246 77.7508C706.781 77.9646 707.184 78.2318 707.456 78.5525C707.738 78.8731 707.952 79.2764 708.097 79.7622C708.253 80.2481 708.35 80.6805 708.389 81.0595C708.428 81.4384 708.447 81.8854 708.447 82.4004V91H706.115V82.6191C706.115 82.279 706.11 82.0117 706.1 81.8174C706.091 81.6133 706.032 81.3267 705.926 80.9574C705.819 80.5882 705.668 80.2967 705.474 80.0829C705.289 79.8594 705.002 79.6651 704.614 79.4999C704.225 79.325 703.749 79.2375 703.185 79.2375C702.126 79.2375 701.354 79.6845 700.868 80.5785C700.392 81.4724 700.154 82.5559 700.154 83.8288V91H697.822ZM311.482 111.393V108.725H314.164V111.393H311.482ZM311.686 129V115.722H313.916V129H311.686ZM318.799 129V115.561H320.971V117.66C322.127 116.164 323.58 115.416 325.329 115.416C326.067 115.416 326.699 115.527 327.223 115.751C327.758 115.965 328.161 116.232 328.433 116.552C328.715 116.873 328.929 117.276 329.075 117.762C329.23 118.248 329.327 118.681 329.366 119.059C329.405 119.438 329.424 119.885 329.424 120.4V129H327.092V120.619C327.092 120.279 327.087 120.012 327.078 119.817C327.068 119.613 327.01 119.327 326.903 118.957C326.796 118.588 326.645 118.297 326.451 118.083C326.266 117.859 325.98 117.665 325.591 117.5C325.202 117.325 324.726 117.238 324.163 117.238C323.103 117.238 322.331 117.685 321.845 118.578C321.369 119.472 321.131 120.556 321.131 121.829V129H318.799ZM344.583 129V108.288H347.265V127.061H353.08L356.666 127.032V129H344.583ZM360.762 129V108.288H363.444V127.061H369.259L372.845 127.032V129H360.762ZM377.116 129V108.288H380.512L385.118 120.255C386.39 123.714 387.076 125.716 387.173 126.26H387.202C387.299 125.56 387.974 123.568 389.228 120.284L393.834 108.288H397.259V129H394.927V111.334L394.898 110.372L394.606 111.48L392.813 116.378L388.222 128.344H386.065L381.59 116.727C380.317 113.268 379.603 111.15 379.448 110.372V129H377.116ZM401.049 127.98L401.413 125.954C401.452 125.973 401.578 126.051 401.792 126.187C402.015 126.313 402.181 126.406 402.288 126.464C402.404 126.522 402.584 126.614 402.827 126.741C403.079 126.857 403.308 126.95 403.512 127.018C403.726 127.086 403.969 127.159 404.241 127.236C404.522 127.314 404.819 127.372 405.13 127.411C405.441 127.44 405.761 127.455 406.092 127.455C407.083 127.455 407.792 127.246 408.22 126.828C408.657 126.401 408.876 125.929 408.876 125.414C408.876 124.919 408.696 124.506 408.336 124.175C407.977 123.845 407.598 123.622 407.2 123.505C407.005 123.447 406.563 123.35 405.873 123.214C405.183 123.068 404.673 122.946 404.343 122.849C403.526 122.587 402.803 122.145 402.171 121.523C401.549 120.891 401.238 120.109 401.238 119.176C401.238 118.719 401.306 118.287 401.442 117.879C401.578 117.471 401.811 117.053 402.142 116.625C402.472 116.198 402.977 115.863 403.658 115.62C404.348 115.367 405.169 115.241 406.121 115.241C407.549 115.241 409.002 115.547 410.479 116.159L410.158 118.141C410.139 118.122 410.022 118.068 409.809 117.981C409.604 117.884 409.488 117.825 409.459 117.806C409.43 117.787 409.318 117.738 409.123 117.66C408.939 117.582 408.808 117.534 408.73 117.514C408.662 117.485 408.54 117.437 408.366 117.369C408.191 117.301 408.05 117.262 407.943 117.252C407.846 117.242 407.7 117.213 407.506 117.165C407.321 117.116 407.156 117.087 407.01 117.077C406.864 117.067 406.689 117.058 406.485 117.048C406.291 117.038 406.082 117.033 405.859 117.033C404.945 117.033 404.299 117.218 403.92 117.587C403.541 117.957 403.352 118.379 403.352 118.855C403.352 119.516 403.614 119.992 404.139 120.284C404.673 120.566 405.416 120.789 406.369 120.954C407.321 121.119 407.996 121.294 408.395 121.479C409.114 121.8 409.726 122.281 410.231 122.922C410.737 123.554 410.989 124.316 410.989 125.21C410.989 125.667 410.921 126.114 410.785 126.551C410.649 126.989 410.416 127.426 410.085 127.863C409.755 128.3 409.245 128.655 408.555 128.927C407.875 129.199 407.063 129.335 406.121 129.335C404.372 129.326 402.681 128.874 401.049 127.98Z" fill="#444E4F"/>
<path d="M12.8869 91.6851C5.5894 91.6851 1.94065 88.0072 1.94065 80.6514C1.94065 73.2858 5.61369 69.6031 12.9598 69.6031C14.5728 69.6031 16.3413 69.8897 18.2653 70.463C18.6054 70.5796 18.8337 70.7011 18.9503 70.8274C19.0086 70.944 19.0378 71.0412 19.0378 71.1189C19.0378 71.1967 18.892 72.0518 18.6005 73.6842C18.4839 74.2575 18.3333 74.5491 18.1487 74.5588C18.0515 74.5588 17.8572 74.4616 17.5657 74.2673C17.2741 74.0632 16.9535 73.8348 16.6037 73.5822C16.2636 73.3296 15.7583 73.1061 15.0878 72.9117C14.4173 72.7077 13.6983 72.6056 12.9306 72.6056C8.43163 72.6056 6.18214 75.273 6.18214 80.6076C6.18214 81.7834 6.28417 82.8328 6.48823 83.7559C6.702 84.6693 7.05181 85.5099 7.53767 86.2775C8.02352 87.0354 8.728 87.6233 9.65112 88.0412C10.584 88.459 11.716 88.6679 13.0472 88.6679C14.0189 88.6679 14.8789 88.5707 15.6271 88.3764C16.3753 88.1723 16.9098 87.9537 17.2304 87.7205C17.5608 87.4776 17.8669 87.2589 18.1487 87.0646C18.4305 86.8605 18.6588 86.7585 18.8337 86.7585C18.8726 86.7585 18.9066 86.7634 18.9358 86.7731C18.9649 86.7828 18.9941 86.8022 19.0232 86.8314C19.0524 86.8605 19.0718 86.8946 19.0815 86.9334C19.0912 86.9626 19.1058 87.0063 19.1252 87.0646C19.1544 87.1229 19.1738 87.1763 19.1835 87.2249C19.1933 87.2735 19.203 87.3367 19.2127 87.4144C19.2224 87.4921 19.2321 87.565 19.2418 87.633C19.2516 87.6913 19.2613 87.7739 19.271 87.8808C19.2807 87.9877 19.2856 88.0703 19.2856 88.1286C19.305 88.3715 19.3244 88.5902 19.3439 88.7845C19.3633 88.9691 19.3779 89.0955 19.3876 89.1635C19.3973 89.2315 19.4022 89.2898 19.4022 89.3384C19.4022 89.387 19.4022 89.4356 19.4022 89.4841C19.4022 89.5813 19.3925 89.659 19.373 89.7174C19.3536 89.7757 19.3099 89.8388 19.2418 89.9068C19.1738 89.9749 19.1252 90.0234 19.0961 90.0526C19.0767 90.072 19.0086 90.1109 18.892 90.1692L18.688 90.2858C17.7163 90.8397 16.8272 91.2089 16.0206 91.3935C15.2141 91.5879 14.1695 91.6851 12.8869 91.6851Z" fill="#C23F40"/>
<path d="M189.135 91.6851C181.837 91.6851 178.188 88.0072 178.188 80.6514C178.188 73.2858 181.861 69.6031 189.207 69.6031C190.82 69.6031 192.589 69.8897 194.513 70.463C194.853 70.5796 195.081 70.7011 195.198 70.8274C195.256 70.944 195.285 71.0412 195.285 71.1189C195.285 71.1967 195.14 72.0518 194.848 73.6842C194.732 74.2575 194.581 74.5491 194.396 74.5588C194.299 74.5588 194.105 74.4616 193.813 74.2673C193.522 74.0632 193.201 73.8348 192.851 73.5822C192.511 73.3296 192.006 73.1061 191.335 72.9117C190.665 72.7077 189.946 72.6056 189.178 72.6056C184.679 72.6056 182.43 75.273 182.43 80.6076C182.43 81.7834 182.532 82.8328 182.736 83.7559C182.95 84.6693 183.299 85.5099 183.785 86.2775C184.271 87.0354 184.976 87.6233 185.899 88.0412C186.832 88.459 187.964 88.6679 189.295 88.6679C190.267 88.6679 191.127 88.5707 191.875 88.3764C192.623 88.1723 193.157 87.9537 193.478 87.7205C193.808 87.4776 194.115 87.2589 194.396 87.0646C194.678 86.8605 194.906 86.7585 195.081 86.7585C195.12 86.7585 195.154 86.7634 195.183 86.7731C195.213 86.7828 195.242 86.8022 195.271 86.8314C195.3 86.8605 195.319 86.8946 195.329 86.9334C195.339 86.9626 195.353 87.0063 195.373 87.0646C195.402 87.1229 195.421 87.1763 195.431 87.2249C195.441 87.2735 195.451 87.3367 195.46 87.4144C195.47 87.4921 195.48 87.565 195.49 87.633C195.499 87.6913 195.509 87.7739 195.519 87.8808C195.528 87.9877 195.533 88.0703 195.533 88.1286C195.553 88.3715 195.572 88.5902 195.592 88.7845C195.611 88.9691 195.626 89.0955 195.635 89.1635C195.645 89.2315 195.65 89.2898 195.65 89.3384C195.65 89.387 195.65 89.4356 195.65 89.4841C195.65 89.5813 195.64 89.659 195.621 89.7174C195.601 89.7757 195.558 89.8388 195.49 89.9068C195.421 89.9749 195.373 90.0234 195.344 90.0526C195.324 90.072 195.256 90.1109 195.14 90.1692L194.936 90.2858C193.964 90.8397 193.075 91.2089 192.268 91.3935C191.462 91.5879 190.417 91.6851 189.135 91.6851Z" fill="#2EA02C"/>
<path d="M593.315 91.6851C586.017 91.6851 582.369 88.0072 582.369 80.6514C582.369 73.2858 586.042 69.6031 593.388 69.6031C595.001 69.6031 596.769 69.8897 598.693 70.463C599.033 70.5796 599.262 70.7011 599.378 70.8274C599.437 70.944 599.466 71.0412 599.466 71.1189C599.466 71.1967 599.32 72.0518 599.028 73.6842C598.912 74.2575 598.761 74.5491 598.577 74.5588C598.479 74.5588 598.285 74.4616 597.994 74.2673C597.702 74.0632 597.381 73.8348 597.032 73.5822C596.692 73.3296 596.186 73.1061 595.516 72.9117C594.845 72.7077 594.126 72.6056 593.359 72.6056C588.86 72.6056 586.61 75.273 586.61 80.6076C586.61 81.7834 586.712 82.8328 586.916 83.7559C587.13 84.6693 587.48 85.5099 587.966 86.2775C588.451 87.0354 589.156 87.6233 590.079 88.0412C591.012 88.459 592.144 88.6679 593.475 88.6679C594.447 88.6679 595.307 88.5707 596.055 88.3764C596.803 88.1723 597.338 87.9537 597.658 87.7205C597.989 87.4776 598.295 87.2589 598.577 87.0646C598.858 86.8605 599.087 86.7585 599.262 86.7585C599.301 86.7585 599.335 86.7634 599.364 86.7731C599.393 86.7828 599.422 86.8022 599.451 86.8314C599.48 86.8605 599.5 86.8946 599.509 86.9334C599.519 86.9626 599.534 87.0063 599.553 87.0646C599.582 87.1229 599.602 87.1763 599.611 87.2249C599.621 87.2735 599.631 87.3367 599.641 87.4144C599.65 87.4921 599.66 87.565 599.67 87.633C599.68 87.6913 599.689 87.7739 599.699 87.8808C599.709 87.9877 599.714 88.0703 599.714 88.1286C599.733 88.3715 599.752 88.5902 599.772 88.7845C599.791 88.9691 599.806 89.0955 599.816 89.1635C599.825 89.2315 599.83 89.2898 599.83 89.3384C599.83 89.387 599.83 89.4356 599.83 89.4841C599.83 89.5813 599.82 89.659 599.801 89.7174C599.782 89.7757 599.738 89.8388 599.67 89.9068C599.602 89.9749 599.553 90.0234 599.524 90.0526C599.505 90.072 599.437 90.1109 599.32 90.1692L599.116 90.2858C598.144 90.8397 597.255 91.2089 596.449 91.3935C595.642 91.5879 594.597 91.6851 593.315 91.6851Z" fill="#E6AC00"/>
</svg>
